<?xml version="1.0" encoding="UTF-8"?>
<svg version="1.1" xmlns="http://www.w3.org/2000/svg" width="664" height="703">
<path d="M0 0 C219.12 0 438.24 0 664 0 C664 231.99 664 463.98 664 703 C444.88 703 225.76 703 0 703 C0 471.01 0 239.02 0 0 Z " fill="#FCFDFD" transform="translate(0,0)"/>
<path d="M0 0 C10.21609783 8.93371248 11.82484096 32.6186478 12.80078125 45.50585938 C15.54120858 93.57080547 9.01388218 142.22727984 -14.02197266 185.15722656 C-14.98616522 186.97393288 -15.9092006 188.80654991 -16.82421875 190.6484375 C-24.33236118 205.55135439 -34.02918723 219.44130644 -45 232 C-45.64453125 232.75410156 -46.2890625 233.50820313 -46.953125 234.28515625 C-57.60090163 246.45694671 -69.11553153 258.20354463 -82 268 C-83.17498434 268.92644299 -84.34942621 269.85357424 -85.5234375 270.78125 C-95.80507567 278.80527286 -106.64981957 285.59519576 -118 292 C-118.86947266 292.495 -119.73894531 292.99 -120.63476562 293.5 C-141.70703257 305.37344168 -164.6867806 314.54364506 -188 321 C-189.00740234 321.29414795 -189.00740234 321.29414795 -190.03515625 321.59423828 C-204.79816592 325.90458162 -219.84850411 328.46049222 -235 331 C-236.0921582 331.18691406 -237.18431641 331.37382813 -238.30957031 331.56640625 C-239.3559668 331.74429687 -240.40236328 331.9221875 -241.48046875 332.10546875 C-242.4036792 332.26297607 -243.32688965 332.4204834 -244.27807617 332.58276367 C-251.63812865 333.71096617 -258.94316699 334.04978807 -266.3828125 334.0234375 C-267.62691895 334.02005371 -268.87102539 334.01666992 -270.15283203 334.01318359 C-271.09239746 334.00883301 -272.03196289 334.00448242 -273 334 C-277.27740307 301.65756832 -277.27740307 301.65756832 -269.17652893 290.91972351 C-261.84536466 282.32297779 -252.78992669 274.61895735 -243 269 C-238.88508307 273.09024033 -234.77342906 277.18372209 -230.66479492 281.28027344 C-229.26595345 282.67407902 -227.86621674 284.06698672 -226.46557617 285.45898438 C-224.45517001 287.45729252 -222.44798114 289.45878318 -220.44140625 291.4609375 C-219.81222794 292.08495453 -219.18304962 292.70897156 -218.5348053 293.35189819 C-217.95427902 293.93234894 -217.37375275 294.51279968 -216.77563477 295.11083984 C-216.26267349 295.62158051 -215.74971222 296.13232117 -215.22120667 296.65853882 C-214 298 -214 298 -213 300 C-210.87423218 300.46651207 -210.87423218 300.46651207 -208.4375 300.625 C-207.19806641 300.73714844 -207.19806641 300.73714844 -205.93359375 300.8515625 C-205.29550781 300.90054687 -204.65742188 300.94953125 -204 301 C-204.00553076 300.439542 -204.01106152 299.879084 -204.01675987 299.30164242 C-204.14942989 285.64656888 -204.24824997 271.99160867 -204.31087303 258.3360281 C-204.34217632 251.73215647 -204.38463307 245.12875026 -204.45263672 238.52514648 C-204.51786165 232.15143832 -204.55371359 225.77817762 -204.56926346 219.40416145 C-204.5803439 216.97325662 -204.60198169 214.54237609 -204.63438034 212.11166191 C-204.67798265 208.70468231 -204.68393214 205.29954801 -204.68115234 201.89233398 C-204.702724 200.88891968 -204.72429565 199.88550537 -204.746521 198.85168457 C-204.69436549 192.93814833 -203.7603623 189.61190841 -199.71951866 185.22902107 C-196.31317695 182.79434802 -192.55285231 183.10587349 -188.515625 183.24609375 C-187.17041779 183.25383568 -187.17041779 183.25383568 -185.79803467 183.26173401 C-183.91184956 183.27881597 -182.02574994 183.31257489 -180.14013672 183.36206055 C-177.24515556 183.43762645 -174.35289067 183.46450985 -171.45703125 183.48242188 C-169.62235912 183.50500458 -167.78771794 183.53030001 -165.953125 183.55859375 C-165.08544495 183.57023056 -164.21776489 183.58186737 -163.3237915 183.59385681 C-157.23563345 183.76436655 -157.23563345 183.76436655 -155 186 C-154.73828697 188.02647591 -154.73828697 188.02647591 -154.7215271 190.56838989 C-154.71036362 191.53035278 -154.69920013 192.49231567 -154.68769836 193.48342896 C-154.68553818 194.5422226 -154.68337799 195.60101624 -154.68115234 196.69189453 C-154.67110672 197.80409363 -154.6610611 198.91629272 -154.65071106 200.06219482 C-154.6197262 203.75239527 -154.6028014 207.44252268 -154.5859375 211.1328125 C-154.56723817 213.68586869 -154.5476657 216.23891861 -154.5272522 218.79196167 C-154.48105904 224.83383463 -154.44369782 230.87570028 -154.41057932 236.91765392 C-154.37238878 243.79549973 -154.32297066 250.67325041 -154.27259517 257.55101609 C-154.16921022 271.70060687 -154.07997125 285.85025891 -154 300 C-152.68 299.34 -151.36 298.68 -150 298 C-150.00079559 296.96318588 -150.00159119 295.92637177 -150.00241089 294.85813904 C-150.00601754 285.07385018 -149.97816223 275.29008593 -149.9197216 265.50596523 C-149.89068343 260.47610065 -149.87262458 255.4467016 -149.87988281 250.41674805 C-149.88648349 245.55993862 -149.86394903 240.70404849 -149.82144547 235.84742928 C-149.81032739 233.99717545 -149.80960239 232.14682826 -149.81957626 230.29656792 C-149.8317827 227.69857185 -149.80661088 225.10336735 -149.77294922 222.50561523 C-149.78517014 221.74532013 -149.79739105 220.98502502 -149.8099823 220.20169067 C-149.68870027 214.98700305 -148.16113789 212.20192729 -144.72680569 208.31137943 C-141.30736252 205.71456876 -137.38287423 206.12754679 -133.26171875 206.28125 C-132.34034622 206.28878296 -131.41897369 206.29631592 -130.46968079 206.30407715 C-127.54073051 206.33650284 -124.6154428 206.41818028 -121.6875 206.5 C-119.69990894 206.52655086 -117.7122742 206.55002186 -115.72460938 206.5703125 C-101.22826707 206.77173293 -101.22826707 206.77173293 -100 208 C-99.87642922 209.93223995 -99.82205542 211.86893799 -99.79467773 213.80493164 C-99.77473251 215.04614273 -99.75478729 216.28735382 -99.73423767 217.56617737 C-99.71725207 218.9308357 -99.70037331 220.29549537 -99.68359375 221.66015625 C-99.66303064 223.04878875 -99.64203434 224.4374149 -99.62062073 225.82603455 C-99.56533353 229.48714059 -99.51595374 233.14830373 -99.46777344 236.80950928 C-99.41760679 240.54297997 -99.36189554 244.27636738 -99.30664062 248.00976562 C-99.19897782 255.3397733 -99.09755106 262.66985005 -99 270 C-98.08476563 269.2059375 -97.16953125 268.411875 -96.2265625 267.59375 C-95.02626289 266.56224252 -93.82572995 265.53100651 -92.625 264.5 C-92.02171875 263.97535156 -91.4184375 263.45070313 -90.796875 262.91015625 C-86.2265625 259 -86.2265625 259 -84 259 C-84.0566256 258.13461861 -84.0566256 258.13461861 -84.11439514 257.25175476 C-84.49291786 251.20182198 -84.74774219 245.15527368 -84.93383789 239.09643555 C-85.01892179 236.84211572 -85.13465202 234.58872329 -85.2824707 232.33764648 C-86.44642885 214.14526257 -86.44642885 214.14526257 -82.3923645 208.93313599 C-78.41574532 205.43865631 -73.96713405 203.1683234 -69.15646362 201.03128052 C-65.77751328 199.41537306 -62.82173987 197.27509493 -59.8125 195.0625 C-58.9231073 194.41977646 -58.9231073 194.41977646 -58.01574707 193.7640686 C-43.99455415 183.58745664 -31.65454277 171.64696355 -21 158 C-20.33097656 157.15953125 -19.66195312 156.3190625 -18.97265625 155.453125 C-10.63098653 144.55114081 -4.12228327 132.09305514 0 119 C0.31839844 118.04867187 0.63679688 117.09734375 0.96484375 116.1171875 C2.04733346 112.85746376 3.0972449 109.58989683 4.125 106.3125 C4.47820312 105.19488281 4.83140625 104.07726562 5.1953125 102.92578125 C6.1325932 100.02363845 6.1325932 100.02363845 6 97 C5.87625 97.53625 5.7525 98.0725 5.625 98.625 C0.14727866 119.44034111 -13.52881619 138.44593849 -28 154 C-28.72872314 154.78648926 -28.72872314 154.78648926 -29.47216797 155.58886719 C-41.99663561 168.95443674 -56.65440023 179.12636467 -72 189 C-72.7415332 189.48243164 -73.48306641 189.96486328 -74.24707031 190.46191406 C-74.96217773 190.92049805 -75.67728516 191.37908203 -76.4140625 191.8515625 C-77.05553223 192.26486816 -77.69700195 192.67817383 -78.35791016 193.10400391 C-80 194 -80 194 -82 194 C-84.84595015 173.9469974 -84.84595015 173.9469974 -80.45898438 167.86279297 C-76.2683786 164.16647972 -71.33401316 161.72225928 -66.359375 159.24169922 C-62.90605073 157.42427298 -59.90913093 155.1896835 -56.875 152.75 C-56.32215332 152.31051025 -55.76930664 151.87102051 -55.19970703 151.41821289 C-33.27461082 133.54593749 -18.34544049 111.66053822 -7 86 C-6.56558594 85.02804687 -6.13117188 84.05609375 -5.68359375 83.0546875 C-3.62452746 78.20714398 -2.33470082 73.52544896 -1.4921875 68.32421875 C-1 66 -1 66 -0.00756836 63.63964844 C3.55977975 54.29383603 2.18620556 42.51469252 2.18530273 32.62963867 C2.18749814 29.93978242 2.20573799 27.25033144 2.22460938 24.56054688 C2.25127006 16.12024144 2.1645599 8.22190539 0 0 Z " fill="#EA8E0F" transform="translate(631,243)"/>
<path d="M0 0 C1.74549123 0.15755028 3.49086233 0.32061616 5.23144531 0.52539062 C9.2783327 0.9153295 13.33864093 0.99460057 17.40063477 1.13183594 C22.45607101 1.30377263 27.50906137 1.52789679 32.5625 1.75 C29.40074861 5.50564616 26.24964752 9.17616663 22.6875 12.5625 C4.41033721 30.63078093 -9.07197985 55.32613979 -16.4375 79.75 C-16.80875 80.95011719 -17.18 82.15023437 -17.5625 83.38671875 C-29.55983498 123.48075366 -23.86857644 167.66820903 -4.6875 204.5625 C15.35605846 241.51828942 48.47060516 267.14039723 86.5625 283.75 C87.59375 284.20761719 88.625 284.66523438 89.6875 285.13671875 C125.5617417 300.58798861 163.71092584 307.00047259 202.5625 308.75 C198.68318862 314.19624891 194.44561805 319.16324116 189.93359375 324.09375 C186.72180173 327.69180367 183.71004857 331.43724004 180.703125 335.20703125 C178.45590195 337.87663381 176.06150496 340.31652839 173.5625 342.75 C177.5225 343.08 181.4825 343.41 185.5625 343.75 C185.5625 352 185.5625 360.25 185.5625 368.75 C175.54390814 367.51995936 165.78888026 365.93075685 155.9375 363.6875 C154.95336121 363.46465332 154.95336121 363.46465332 153.94934082 363.23730469 C127.42673254 357.18954522 100.92570124 348.95073259 76.5625 336.75 C75.70640137 336.32589844 74.85030273 335.90179687 73.96826172 335.46484375 C50.81253699 323.93315632 29.79793074 310.09105114 11.07324219 292.19335938 C10.04997417 291.21573162 9.02180973 290.24320776 7.98925781 289.27539062 C-26.95842504 256.43094218 -50.86831402 206.76049429 -53.4375 158.75 C-53.57452398 153.79903335 -53.62333505 148.85307145 -53.62280273 143.90039062 C-53.6249763 141.64954321 -53.64316441 139.39919797 -53.66210938 137.1484375 C-53.71526276 123.5827498 -52.42737336 110.239826 -49.6875 96.9375 C-49.51758545 96.11113037 -49.3476709 95.28476074 -49.17260742 94.43334961 C-45.53360357 77.39817223 -39.73583616 61.54285941 -32.4375 45.75 C-32.10492188 45.02828613 -31.77234375 44.30657227 -31.4296875 43.56298828 C-26.59090165 33.1945127 -20.88304875 23.4074363 -14.70996094 13.77978516 C-13.55376685 11.93546482 -12.47618357 10.06738628 -11.4140625 8.16796875 C-8.29112516 3.03554641 -6.24881244 0.11648918 0 0 Z " fill="#35973C" transform="translate(78.4375,203.25)"/>
<path d="M0 0 C30.49944038 1.06821711 59.0434142 7.41929913 86 22 C87.09441406 22.58910156 88.18882812 23.17820313 89.31640625 23.78515625 C120.02868192 41.00442703 140.97758603 69.3640993 151.09765625 102.60546875 C160.03546839 138.04232192 152.64866198 175.55464915 134.06640625 206.6875 C130.9615499 211.66466103 127.59790444 216.36923706 124 221 C123.30132813 221.90363281 122.60265625 222.80726563 121.8828125 223.73828125 C111.08269367 237.32490761 98.50726071 248.54065149 84 258 C85.61759027 254.5513304 87.62232142 251.44717233 89.6875 248.25 C102.72056312 227.46399648 109.6485463 203.07494464 105.3515625 178.54296875 C98.44890724 150.37187571 76.94969907 132.55788347 53.5 117.875 C52.6440625 117.35679687 51.788125 116.83859375 50.90625 116.3046875 C49 115 49 115 48 113 C48.86278564 112.97494385 49.72557129 112.9498877 50.61450195 112.92407227 C53.81823769 112.82888615 57.02181537 112.72965556 60.2253418 112.62768555 C61.61135983 112.58439782 62.99742906 112.54271836 64.38354492 112.50268555 C66.37691798 112.44483416 68.37010565 112.38070224 70.36328125 112.31640625 C71.56251221 112.27974854 72.76174316 112.24309082 73.99731445 112.20532227 C77.04994349 112.12266975 77.04994349 112.12266975 80 111 C81.12948862 107.61153413 81.13387028 105.02175946 81.14526367 101.44897461 C81.14862228 100.78850632 81.1519809 100.12803802 81.15544128 99.44755554 C81.16493571 97.26579913 81.16689336 95.08411953 81.16796875 92.90234375 C81.1711814 91.38684558 81.17454548 89.87134773 81.17805481 88.35585022 C81.1840416 85.18082967 81.18589507 82.00583634 81.18530273 78.83081055 C81.18520091 74.7561766 81.19887573 70.68171613 81.21607494 66.60712337 C81.2271728 63.4785125 81.22922266 60.34994393 81.22869301 57.22131538 C81.2298756 55.71856651 81.23431296 54.21581663 81.24202538 52.71308708 C81.25178473 50.61580969 81.24896406 48.51891394 81.24291992 46.42163086 C81.24434494 45.227108 81.24576996 44.03258514 81.24723816 42.80186462 C81.29004996 39.86190607 81.29004996 39.86190607 79 38 C76.94666093 37.70150785 76.94666093 37.70150785 74.56616211 37.75708008 C73.64858627 37.75400345 72.73101044 37.75092682 71.78562927 37.74775696 C70.79289505 37.75494247 69.80016083 37.76212799 68.77734375 37.76953125 C67.253619 37.77021858 67.253619 37.77021858 65.69911194 37.7709198 C63.54964023 37.77394404 61.40017075 37.78183544 59.25073242 37.79418945 C55.94767558 37.81244376 52.64489888 37.8146992 49.34179688 37.81445312 C47.25781006 37.81936821 45.17382515 37.82519649 43.08984375 37.83203125 C41.59770607 37.83370049 41.59770607 37.83370049 40.07542419 37.83540344 C39.16100052 37.84178329 38.24657684 37.84816315 37.30444336 37.85473633 C36.49551132 37.85854813 35.68657928 37.86235992 34.85313416 37.86628723 C32.98387066 37.79800125 32.98387066 37.79800125 32 39 C31.87619162 41.05478453 31.82201797 43.1137896 31.79467773 45.17211914 C31.77982834 46.13794167 31.77982834 46.13794167 31.76467896 47.12327576 C31.73298472 49.26053131 31.70827551 51.39780913 31.68359375 53.53515625 C31.66303104 55.01346936 31.64203476 56.49177649 31.62062073 57.97007751 C31.56532941 61.86792171 31.51595143 65.76581958 31.46777344 69.66375732 C31.41760981 73.63851723 31.36189699 77.61319884 31.30664062 81.58789062 C31.19897276 89.39186085 31.09754713 97.19589602 31 105 C27.23774812 104.29621988 24.02854831 103.28697995 20.515625 101.75 C18.99001953 101.08484375 18.99001953 101.08484375 17.43359375 100.40625 C15.85771484 99.71015625 15.85771484 99.71015625 14.25 99 C12.65091797 98.30390625 12.65091797 98.30390625 11.01953125 97.59375 C3.14143991 94.14143991 3.14143991 94.14143991 2 93 C1.77140268 90.24413225 1.6147464 87.51175509 1.5 84.75 C1.46011963 83.83814941 1.42023926 82.92629883 1.37915039 81.98681641 C0.24801421 54.65874273 -0.16529265 27.34957581 0 0 Z " fill="#0379B1" transform="translate(468,138)"/>
<path d="M0 0 C84.29111552 0 84.29111552 0 105.75 20.3125 C114.18467242 29.06011963 118.94572646 39.33913215 120.6875 51.25 C120.81415039 52.09046875 120.94080078 52.9309375 121.07128906 53.796875 C121.94689774 59.91433511 122.38372725 65.82100742 122 72 C121.97099609 73.27617187 121.97099609 73.27617187 121.94140625 74.578125 C121.23963018 89.12402892 114.80331669 105.98660324 104 116 C73.74141694 140.80917 39.1488998 134 0 134 C0 89.78 0 45.56 0 0 Z " fill="#279458" transform="translate(131,271)"/>
<path d="M0 0 C34 0 34 0 40.7578125 5.88671875 C42.07272625 8.53155046 43.12133085 10.94571281 44.125 13.6875 C44.70836038 14.98055047 45.30474872 16.26780293 45.9140625 17.54882812 C47.10910064 20.09369235 48.2329551 22.65481897 49.31689453 25.2487793 C51.42627376 30.1420074 54.22712134 34.50230522 57.09033203 38.99291992 C58.8505231 41.76462452 60.50397306 44.56671541 62.1171875 47.42578125 C62.57867187 48.24111328 63.04015625 49.05644531 63.515625 49.89648438 C64.44921508 51.55575295 65.3786852 53.21734431 66.3046875 54.88085938 C66.7584375 55.67943359 67.2121875 56.47800781 67.6796875 57.30078125 C68.07913574 58.01403564 68.47858398 58.72729004 68.89013672 59.4621582 C69.2563916 59.969646 69.62264648 60.47713379 70 61 C70.66 61 71.32 61 72 61 C73.44937558 58.83972562 74.76939791 56.68978354 76.0625 54.4375 C76.78210673 53.20677074 77.50218647 51.97631798 78.22265625 50.74609375 C78.63854004 50.03195312 79.05442383 49.3178125 79.48291016 48.58203125 C82.54343187 43.37313558 85.67175499 38.20433759 88.78366089 33.02603149 C90.38883592 30.35232386 91.9897707 27.67609271 93.59022522 24.9995575 C95.16398408 22.36776814 96.73919437 19.73684883 98.31445312 17.10595703 C99.11963976 15.7605525 99.92430933 14.41483841 100.72851562 13.06884766 C101.91140188 11.08935259 103.09613389 9.11097314 104.28125 7.1328125 C104.64158325 6.52881622 105.0019165 5.92481995 105.37316895 5.30252075 C107.88613049 1.11386951 107.88613049 1.11386951 109 0 C120.22 0 131.44 0 143 0 C143 44.22 143 88.44 143 134 C132.44 134 121.88 134 111 134 C110.67 107.6 110.34 81.2 110 54 C98.35541597 73.57803925 98.35541597 73.57803925 87.6875 93.6875 C82.69804163 102.21584738 82.69804163 102.21584738 78.68652344 104.06835938 C72.97124909 105.44429998 67.50346137 105.05796358 62 103 C58.53634152 100.62821284 57.55452018 97.82111088 56 94 C54.69147335 91.61124284 53.35500694 89.23770163 52 86.875 C50.35 83.94625 48.7 81.0175 47 78 C42.38 70.41 37.76 62.82 33 55 C32.67 81.07 32.34 107.14 32 134 C21.44 134 10.88 134 0 134 C0 89.78 0 45.56 0 0 Z " fill="#077E9C" transform="translate(378,271)"/>
<path d="M0 0 C3.35337641 1.67668821 4.15752165 5.45044165 5.58984375 8.76171875 C5.93503555 9.54513138 6.28022736 10.32854401 6.63587952 11.13569641 C7.74255373 13.65032256 8.84032074 16.16871837 9.9375 18.6875 C11.03280598 21.18764971 12.12994332 23.68698217 13.22840881 26.18574524 C13.91181376 27.74189 14.59310386 29.29896579 15.2719574 30.85710144 C16.67973213 34.07555352 18.11333884 37.2184212 19.73266602 40.33911133 C21 43 21 43 21 46 C21.66 46 22.32 46 23 46 C23.10199707 45.17113281 23.20399414 44.34226563 23.30908203 43.48828125 C24.09997488 39.4952505 25.48539576 35.92115831 27.0546875 32.1875 C27.35690216 31.4555542 27.65911682 30.7236084 27.9704895 29.96948242 C28.60807067 28.42862534 29.24866081 26.88901025 29.89208984 25.35058594 C30.87088025 23.00985221 31.84052818 20.66549928 32.80859375 18.3203125 C33.43175973 16.81748765 34.05544068 15.31487621 34.6796875 13.8125 C34.9672995 13.11858154 35.2549115 12.42466309 35.55123901 11.7097168 C37.22099418 7.72354004 39.02101939 3.84581648 41 0 C41.33 0 41.66 0 42 0 C42.77620108 7.01628636 43.26988111 14.01020439 43.5625 21.0625 C43.6049585 22.05386963 43.64741699 23.04523926 43.69116211 24.06665039 C44.03691624 32.7146778 44.10453617 41.34672795 44 50 C50.03438071 45.18373962 55.19696089 39.66073657 60.41113281 33.99755859 C66.74787656 27.13642979 73.35156448 20.55749947 80 14 C81 16 81 16 80.3984375 18.09692383 C80.06070313 18.95825928 79.72296875 19.81959473 79.375 20.70703125 C78.81413696 22.16206055 78.81413696 22.16206055 78.24194336 23.64648438 C77.83210205 24.69126953 77.42226074 25.73605469 77 26.8125 C72.65738702 38.10551678 68.72830329 49.49141108 65 61 C80.01812337 54.03839935 95.03538231 47.07612636 110 40 C110 44.12744343 108.38249504 45.04694583 105.5625 48 C104.63318879 48.99010111 103.70615391 49.98234306 102.78125 50.9765625 C102.31203125 51.4809082 101.8428125 51.98525391 101.359375 52.50488281 C98.56326174 55.58020566 95.9930858 58.84178353 93.3828125 62.07421875 C90.60849777 65.48071339 87.77950349 68.83745695 84.9375 72.1875 C84.44773682 72.76483887 83.95797363 73.34217773 83.45336914 73.93701172 C82.30296657 75.29195319 81.15159343 76.64607052 80 78 C89.1381481 78.11204814 98.19417846 77.93317763 107.31542969 77.35791016 C114.55036254 76.92167237 121.75349747 76.90380749 129 77 C126.29337831 79.10012374 123.55636474 80.91085041 120.578125 82.6015625 C119.72436279 83.08786133 118.87060059 83.57416016 117.9909668 84.07519531 C116.63418823 84.84234863 116.63418823 84.84234863 115.25 85.625 C114.32292236 86.1519043 113.39584473 86.67880859 112.44067383 87.22167969 C104.30790132 91.83944627 96.1595492 96.42972916 88 101 C90.98853288 102.99235525 93.28239767 103.81880835 96.69921875 104.83984375 C98.39014648 105.3512793 98.39014648 105.3512793 100.11523438 105.87304688 C101.29408203 106.22431641 102.47292969 106.57558594 103.6875 106.9375 C110.88091599 109.0927258 118.0090479 111.25016804 125 114 C125 114.33 125 114.66 125 115 C123.71875244 115.10489746 123.71875244 115.10489746 122.41162109 115.21191406 C105.94255618 116.58673065 89.66971457 118.12126268 73.46435547 121.48828125 C71.00161227 121.99966521 68.53493055 122.48612971 66.06640625 122.96875 C49.42150502 126.2752394 33.41019889 131.10869184 17.3125 136.4375 C16.26990021 136.7809697 16.26990021 136.7809697 15.20623779 137.13137817 C6.8998279 139.8759525 -1.27856285 142.78382278 -9.32096863 146.2374115 C-10.85840943 146.880886 -12.42744409 147.44786637 -14 148 C-14.66 147.67 -15.32 147.34 -16 147 C-15.67386719 145.90042969 -15.34773438 144.80085937 -15.01171875 143.66796875 C-13.87413146 139.82518059 -12.74668603 135.97949725 -11.62402344 132.13232422 C-11.11112279 130.37971301 -10.59162692 128.62903322 -10.0703125 126.87890625 C-8.33350657 120.85380113 -7.27198043 114.86610121 -6.4296875 108.65234375 C-6 106 -6 106 -5 104 C-5.95003906 104.16371094 -6.90007812 104.32742187 -7.87890625 104.49609375 C-12.56533049 105.16558293 -17.21268306 105.10920922 -21.9375 105.0625 C-22.81212891 105.05798828 -23.68675781 105.05347656 -24.58789062 105.04882812 C-26.72529047 105.03714834 -28.86265463 105.01921689 -31 105 C-29.5459566 91.57934659 -21.37477649 80.31711856 -11.25 71.75 C2.69485435 61.1681904 17.09986842 58.15781389 34.2421875 60.4296875 C50.38208877 63.89741165 63.00463716 73.87430792 72.3046875 87.203125 C74.7726336 91.27466742 76.51200051 95.48705418 78 100 C75.49579256 85.88537626 67.85083428 73.295584 56 65 C41.04474553 56.29416346 25.96138085 52.33533816 8.75 56.125 C-6.4454517 60.57244928 -17.95718294 69.3416099 -26 83 C-29.97588848 90.36676885 -32.24764905 97.83660897 -34 106 C-36.64 106 -39.28 106 -42 106 C-41.34 105.34 -40.68 104.68 -40 104 C-44.98767601 100.36962598 -50.18325211 98.08424165 -55.875 95.75 C-65.12832998 91.87894919 -74.09994824 87.61997029 -83 83 C-83 82.67 -83 82.34 -83 82 C-66.83 82 -50.66 82 -34 82 C-38.6757953 76.65623394 -43.37754363 71.405493 -48.25 66.25 C-49.55887443 64.85573219 -50.8674654 63.46119823 -52.17578125 62.06640625 C-54.58204693 59.50419569 -56.99675755 56.95042443 -59.41796875 54.40234375 C-60.42480717 53.33103734 -61.43133802 52.25944175 -62.4375 51.1875 C-63.32308594 50.25292969 -64.20867187 49.31835938 -65.12109375 48.35546875 C-67 46 -67 46 -67 43 C-66.44876465 43.25579834 -65.8975293 43.51159668 -65.32958984 43.77514648 C-54.55257153 48.76154467 -43.73723028 53.61758255 -32.75 58.125 C-31.80431152 58.51486084 -30.85862305 58.90472168 -29.88427734 59.30639648 C-29.00980957 59.66161377 -28.1353418 60.01683105 -27.234375 60.3828125 C-26.46319336 60.69621582 -25.69201172 61.00961914 -24.89746094 61.33251953 C-23.02079492 62.11061407 -23.02079492 62.11061407 -21 62 C-22.53821265 57.81122331 -24.0808509 53.62409176 -25.625 49.4375 C-26.30526245 47.58995117 -26.30526245 47.58995117 -26.99926758 45.70507812 C-29.87397627 37.93277444 -32.86718918 30.23921441 -36.13671875 22.625 C-37 20 -37 20 -36 17 C-28.00298186 24.39265509 -20.09728904 31.82733987 -12.453125 39.5859375 C-9.55109491 42.44175692 -6.51109321 45.08008592 -3.36328125 47.66015625 C-2.91339844 48.10230469 -2.46351563 48.54445312 -2 49 C-2 49.66 -2 50.32 -2 51 C-1.34 51 -0.68 51 0 51 C0 34.17 0 17.34 0 0 Z " fill="#EB8C10" transform="translate(271,12)"/>
<path d="M0 0 C31.68 0 63.36 0 96 0 C96 8.91 96 17.82 96 27 C74.88 27 53.76 27 32 27 C32 35.58 32 44.16 32 53 C50.81 53 69.62 53 89 53 C89 61.58 89 70.16 89 79 C70.52 79 52.04 79 33 79 C33 88.24 33 97.48 33 107 C54.45 107 75.9 107 98 107 C98 115.91 98 124.82 98 134 C65.66 134 33.32 134 0 134 C0 89.78 0 45.56 0 0 Z " fill="#218D5E" transform="translate(264,271)"/>
<path d="M0 0 C-3.18007995 4.33369693 -6.35319569 8.53646227 -10.0625 12.4375 C-15.38183427 18.259166 -20.0998859 24.50017058 -24.82421875 30.80859375 C-26.76640066 33.39992727 -28.74797392 35.93167754 -30.83203125 38.41015625 C-35.4295905 44.02135061 -38.05235049 47.72548598 -37.4140625 55.13671875 C-37.17381544 57.00514306 -37.17381544 57.00514306 -36 58 C-29.39259288 58.80244996 -25.7069998 56.58374939 -20.375 53.125 C-19.58303223 52.62468262 -18.79106445 52.12436523 -17.97509766 51.60888672 C-10.9903023 47.13188876 -4.43835074 42.23185178 2 37 C3.3459469 35.9213666 4.69232361 34.84326938 6.0390625 33.765625 C12.65726945 28.44725846 19.19684913 23.09947524 25.3984375 17.29296875 C27 16 27 16 29 16 C29 38.44 29 60.88 29 84 C14.24233958 80.59438606 14.24233958 80.59438606 7.25 78.125 C5.69864113 77.59552879 4.14653822 77.06823331 2.59375 76.54296875 C1.82546875 76.28306152 1.0571875 76.0231543 0.265625 75.75537109 C-25.53385772 67.15369011 -52.16985083 62.48945455 -79.1875 59.75 C-79.95070557 59.66983643 -80.71391113 59.58967285 -81.50024414 59.50708008 C-94.60050788 58.3060017 -107.8906006 58.9450676 -121 59.6875 C-121.71347595 59.72679626 -122.4269519 59.76609253 -123.16204834 59.80657959 C-139.29203136 60.73064909 -155.10555995 63.16806454 -171 66 C-170.41769043 62.43251726 -169.64430979 59.23360185 -168 56 C-165.20144703 54.18614365 -162.22787479 53.71066763 -159 53 C-157.3290879 52.40708507 -155.66870784 51.78374408 -154.01953125 51.1328125 C-153.17261719 50.80700195 -152.32570313 50.48119141 -151.453125 50.14550781 C-150.14601563 49.64035645 -150.14601563 49.64035645 -148.8125 49.125 C-137.43692678 44.76542724 -126.0673998 40.52411847 -114.39111328 37.02441406 C-112.26218585 36.38129099 -110.1363731 35.72766612 -108.01538086 35.05883789 C-100.11699162 32.57016575 -92.17589371 30.43499993 -84.125 28.5 C-82.88081299 28.19956787 -81.63662598 27.89913574 -80.35473633 27.58959961 C-68.9827004 24.89765438 -57.54547316 22.7908031 -46 21 C-54.48223076 21.62099526 -62.80505849 22.82988134 -71.1875 24.25 C-71.83995697 24.36048676 -72.49241394 24.47097351 -73.16464233 24.58480835 C-105.41526797 30.0677232 -136.13573079 38.42371035 -166 52 C-165.75 49.625 -165.75 49.625 -165 46 C-164.85691406 44.83984375 -164.85691406 44.83984375 -164.7109375 43.65625 C-163.84313963 39.90736321 -162.6946058 37.12427128 -159.38525391 34.92871094 C-154.77814026 32.54173841 -149.9039457 30.81400565 -145.02197266 29.08007812 C-141.73041258 27.90364722 -138.46529987 26.66723178 -135.19921875 25.421875 C-119.8492094 19.60925364 -104.64682086 14.40744652 -88.59863281 10.87231445 C-86.63223267 10.43909344 -84.66758958 9.99854723 -82.703125 9.55664062 C-78.80633665 8.68402762 -74.90434382 7.83821097 -71 7 C-69.76741455 6.73421143 -68.5348291 6.46842285 -67.26489258 6.19458008 C-58.02871279 4.2689817 -48.80107509 2.9050366 -39.4375 1.8125 C-38.70541321 1.72528687 -37.97332642 1.63807373 -37.21905518 1.54821777 C-24.77864492 0.08440124 -12.53034615 -0.48714089 0 0 Z " fill="#0D97BC" transform="translate(411,135)"/>
<path d="M0 0 C1.65322266 0.01740234 1.65322266 0.01740234 3.33984375 0.03515625 C4.44457031 0.04417969 5.54929687 0.05320312 6.6875 0.0625 C7.54214844 0.07410156 8.39679688 0.08570312 9.27734375 0.09765625 C9.27734375 0.42765625 9.27734375 0.75765625 9.27734375 1.09765625 C15.54734375 1.42765625 21.81734375 1.75765625 28.27734375 2.09765625 C28.27734375 3.41765625 28.27734375 4.73765625 28.27734375 6.09765625 C28.93734375 5.76765625 29.59734375 5.43765625 30.27734375 5.09765625 C30.60734375 4.10765625 30.93734375 3.11765625 31.27734375 2.09765625 C43.48734375 2.09765625 55.69734375 2.09765625 68.27734375 2.09765625 C61.65747875 22.26755742 54.57410934 42.10477611 46.6015625 61.7734375 C45.10536424 65.52938063 43.68648989 69.30825151 42.27734375 73.09765625 C38.44402676 73.12695606 34.61073904 73.14455522 30.77734375 73.16015625 C29.6996875 73.16853516 28.62203125 73.17691406 27.51171875 73.18554688 C21.66405993 73.2033751 16.05870704 72.98871588 10.27734375 72.09765625 C10.68572862 70.32489467 11.10466438 68.55456405 11.52734375 66.78515625 C11.87539063 65.30595703 11.87539063 65.30595703 12.23046875 63.796875 C13.64114262 58.81214307 15.5069447 53.96625363 17.27734375 49.09765625 C27.83734375 49.09765625 38.39734375 49.09765625 49.27734375 49.09765625 C49.27734375 47.77765625 49.27734375 46.45765625 49.27734375 45.09765625 C39.37734375 45.09765625 29.47734375 45.09765625 19.27734375 45.09765625 C19.27734375 42.45765625 19.27734375 39.81765625 19.27734375 37.09765625 C18.82359375 37.86078125 18.36984375 38.62390625 17.90234375 39.41015625 C16.73909883 41.33398439 15.52440225 43.22706849 14.27734375 45.09765625 C11.38818359 45.43823242 11.38818359 45.43823242 7.73828125 45.390625 C5.78535156 45.37612305 5.78535156 45.37612305 3.79296875 45.36132812 C2.41275452 45.33626013 1.03254619 45.31086527 -0.34765625 45.28515625 C-1.73566288 45.27011142 -3.12368492 45.25642266 -4.51171875 45.24414062 C-7.91575134 45.20868195 -11.31901247 45.15925923 -14.72265625 45.09765625 C-15.21765625 43.11765625 -15.21765625 43.11765625 -15.72265625 41.09765625 C-16.08528564 41.74959961 -16.44791504 42.40154297 -16.8215332 43.07324219 C-18.72265625 45.09765625 -18.72265625 45.09765625 -21.63354492 45.55175781 C-22.79088135 45.53081055 -23.94821777 45.50986328 -25.140625 45.48828125 C-26.39423828 45.47539062 -27.64785156 45.4625 -28.93945312 45.44921875 C-30.24978516 45.41570312 -31.56011719 45.3821875 -32.91015625 45.34765625 C-34.24541635 45.32758932 -35.58070508 45.30933887 -36.91601562 45.29296875 C-40.18561771 45.24575428 -43.45377817 45.17990809 -46.72265625 45.09765625 C-46.72265625 43.44765625 -46.72265625 41.79765625 -46.72265625 40.09765625 C-47.38265625 40.09765625 -48.04265625 40.09765625 -48.72265625 40.09765625 C-49.05265625 42.07765625 -49.38265625 44.05765625 -49.72265625 46.09765625 C-73.72265625 46.09765625 -97.72265625 46.09765625 -121.72265625 46.09765625 C-116.33490007 35.1300575 -116.33490007 35.1300575 -113.66015625 30.97265625 C-112.96212891 29.85503906 -112.96212891 29.85503906 -112.25 28.71484375 C-111.74597656 28.18117187 -111.24195312 27.6475 -110.72265625 27.09765625 C-109.40265625 27.09765625 -108.08265625 27.09765625 -106.72265625 27.09765625 C-106.72265625 26.43765625 -106.72265625 25.77765625 -106.72265625 25.09765625 C-107.71265625 24.76765625 -108.70265625 24.43765625 -109.72265625 24.09765625 C-104.77265625 16.83765625 -99.82265625 9.57765625 -94.72265625 2.09765625 C-90.76265625 2.42765625 -86.80265625 2.75765625 -82.72265625 3.09765625 C-79.96832677 3.18013052 -77.2125942 3.22808091 -74.45703125 3.23046875 C-73.37412811 3.23190384 -73.37412811 3.23190384 -72.26934814 3.23336792 C-70.76045646 3.23403984 -69.25156169 3.23225574 -67.74267578 3.22802734 C-65.48983937 3.22269691 -63.23720517 3.22799026 -60.984375 3.234375 C-52.21341124 3.23700605 -43.53849343 2.90824694 -34.79394531 2.21435547 C-31.72265625 2.09765625 -31.72265625 2.09765625 -29.72265625 3.09765625 C-27.20905277 3.22392371 -24.73663129 3.28773645 -22.22265625 3.28515625 C-21.5052124 3.28507568 -20.78776855 3.28499512 -20.04858398 3.28491211 C-13.03931272 3.21011926 -6.33167357 0.2271045 0 0 Z " fill="#F0F8F9" transform="translate(189.72265625,120.90234375)"/>
<path d="M0 0 C5.94 0 11.88 0 18 0 C18 4.62 18 9.24 18 14 C24.27 14 30.54 14 37 14 C37 32.15 37 50.3 37 69 C36.34 68.67 35.68 68.34 35 68 C35 67.34 35 66.68 35 66 C34.16275391 65.66935547 34.16275391 65.66935547 33.30859375 65.33203125 C30.25865327 63.57225172 28.38969356 61.32965209 26.0625 58.6875 C25.09585227 57.6126889 24.12700867 56.5398496 23.15625 55.46875 C22.64707031 54.90671875 22.13789063 54.3446875 21.61328125 53.765625 C18.80777523 50.69519226 15.95574606 47.67528315 13.0625 44.6875 C12.51924072 44.10637451 11.97598145 43.52524902 11.41625977 42.92651367 C9.70861428 41.12275371 9.70861428 41.12275371 7 39 C-3.4077671 40.13203461 -15.8052273 55.40322372 -22.30065918 62.89886475 C-32.56293687 76.09307029 -29.69605886 94.38674789 -28 110 C-34.93 110 -41.86 110 -49 110 C-48.96777344 107.22851562 -48.93554688 104.45703125 -48.90234375 101.6015625 C-48.90176005 98.8873526 -48.91659055 96.17362784 -48.93286133 93.45947266 C-48.93592455 91.58768508 -48.92321139 89.71579726 -48.89379883 87.84423828 C-48.38837907 75.08466009 -48.38837907 75.08466009 -54.1015625 64.171875 C-55.69918737 62.74096294 -57.3310992 61.34710232 -59 60 C-60.30333495 58.71353007 -61.59471631 57.41478278 -62.87109375 56.1015625 C-64.66946417 54.34029201 -66.4759161 52.58792258 -68.28710938 50.83984375 C-69.16399414 49.97939453 -69.16399414 49.97939453 -70.05859375 49.1015625 C-70.57736084 48.59963379 -71.09612793 48.09770508 -71.63061523 47.58056641 C-73.78238485 45.09695854 -74.79718045 42.89270833 -75.52416992 39.69287109 C-74.67677732 35.33947548 -71.69550616 32.96267988 -68.61328125 29.9140625 C-67.95925827 29.25288422 -67.30523529 28.59170593 -66.63139343 27.91049194 C-65.24626611 26.51758561 -63.85470968 25.13104729 -62.45727539 23.75048828 C-60.31837181 21.63081901 -58.21041759 19.48345736 -56.10351562 17.33203125 C-54.75437596 15.98260126 -53.40352014 14.63488442 -52.05078125 13.2890625 C-51.4203743 12.64337311 -50.78996735 11.99768372 -50.14045715 11.33242798 C-45.75563521 7.06218781 -45.75563521 7.06218781 -42.40429688 6.78637695 C-39.214966 8.39626361 -36.92365073 10.58004473 -34.48046875 13.12890625 C-33.97703445 13.63800034 -33.47360016 14.14709442 -32.95491028 14.6716156 C-31.35610535 16.29273211 -29.77180394 17.92722134 -28.1875 19.5625 C-27.10314287 20.66692883 -26.01786592 21.77045537 -24.93164062 22.87304688 C-22.27511194 25.57016423 -19.63865584 28.28492291 -17 31 C-16.67 25.39 -16.34 19.78 -16 14 C-10.72 14 -5.44 14 0 14 C0 9.38 0 4.76 0 0 Z " fill="#E88A0E" transform="translate(382,468)"/>
<path d="M0 0 C2.87052821 2.85396747 5.71333966 5.73074872 8.53125 8.63671875 C16.56004157 16.86496454 24.56186134 24.40957559 34 31 C35.53914063 32.08087891 35.53914063 32.08087891 37.109375 33.18359375 C53.23670148 44.00587863 70.46567637 52.42511579 88.95898438 58.29931641 C91 59 91 59 94.40625 60.52734375 C99.0134588 62.41529779 103.64341831 63.45085759 108.5 64.5 C109.97509033 64.82363525 109.97509033 64.82363525 111.47998047 65.15380859 C113.4413424 65.58206338 115.40340579 66.00712019 117.36621094 66.42871094 C119.51145701 66.89403128 121.65119021 67.3847103 123.7890625 67.8828125 C156.45818399 75.15111822 194.28716867 76.01599966 227.33203125 70.4375 C230.22512714 69.9630831 232.94578557 69.90177787 235.875 69.9375 C237.32519531 69.95103516 237.32519531 69.95103516 238.8046875 69.96484375 C239.52914062 69.97644531 240.25359375 69.98804688 241 70 C236.75237221 75.08537256 232.29088059 79.79999232 227.5625 84.4375 C223.0007947 88.95037547 218.50980734 93.45518955 214.39453125 98.38671875 C213.93433594 98.91910156 213.47414063 99.45148438 213 100 C212.401875 100.72058594 211.80375 101.44117188 211.1875 102.18359375 C204.78205145 107.50240371 188.86200845 103.63502075 180.88232422 102.91894531 C171.19008774 101.9829693 161.59487505 100.650752 152 99 C151.21657227 98.86899902 150.43314453 98.73799805 149.62597656 98.60302734 C127.67624551 94.86025877 106.17294303 88.44175958 86 79 C85.31969727 78.68595215 84.63939453 78.3719043 83.93847656 78.04833984 C66.34552905 69.85442242 50.72360826 59.61329799 36 47 C35.16597656 46.30777344 34.33195312 45.61554688 33.47265625 44.90234375 C28.82596065 40.98698987 24.86849802 36.67798549 21 32 C20.37351562 31.26136719 19.74703125 30.52273438 19.1015625 29.76171875 C14.24976119 23.90312073 10.11281977 17.72838159 6.078125 11.296875 C4.6665399 9.057443 3.23498808 6.8788821 1.734375 4.703125 C0 2 0 2 0 0 Z " fill="#0E91B5" transform="translate(79,393)"/>
<path d="M0 0 C0.66 0.33 1.32 0.66 2 1 C0.68 4.3 -0.64 7.6 -2 11 C-1.00742188 10.86722656 -0.01484375 10.73445312 1.0078125 10.59765625 C18.4103957 8.31187934 35.45589302 7.86568116 53 8 C50.16262032 10.94558039 46.97670285 13.18211492 43.625 15.5 C13.72529663 36.60772525 -12.35302872 65.57277315 -19.49267578 102.55175781 C-20.34146674 108.01792864 -20.7413467 113.47831428 -21 119 C-21.12181641 120.92392578 -21.12181641 120.92392578 -21.24609375 122.88671875 C-21.72891551 136.65445452 -18.32193544 149.76725068 -13.05078125 162.3984375 C-12.16008975 164.60364397 -11.5000631 166.68102606 -11 169 C-27.46133549 153.4333023 -37.58954894 126.04872909 -38.28515625 103.97265625 C-39.0194432 62.41201486 -24.47180219 32.71557834 0 0 Z " fill="#62B93D" transform="translate(105,224)"/>
<path d="M0 0 C35.39568345 0 35.39568345 0 46.73828125 10.62890625 C55.73288892 20.24844944 56.49233142 32.08898533 56.28125 44.6953125 C55.85905655 54.27488196 51.99524158 63.74122049 45.37109375 70.71484375 C32.76764543 82.24685798 16.21491889 80 0 80 C0 53.6 0 27.2 0 0 Z " fill="#FBFCFC" transform="translate(164,298)"/>
<path d="M0 0 C0 0.66 0 1.32 0 2 C0.81549316 2.36786621 0.81549316 2.36786621 1.64746094 2.74316406 C11.55486992 8.03616338 23.03576934 17.74199726 28 28 C31.43237125 40.02759575 29.49903984 53.76937241 28 66 C17.54567418 66.20082085 7.28238604 65.69829089 -3.12792969 64.77319336 C-5.52486743 64.56029121 -7.92245494 64.35655222 -10.3203125 64.15429688 C-11.86983643 64.02135399 -13.41931737 63.88790894 -14.96875 63.75390625 C-15.67302124 63.6934462 -16.37729248 63.63298615 -17.10290527 63.57069397 C-21.43044104 63.18427905 -25.70606375 62.64863614 -30 62 C-30.24911232 57.18063472 -30.42948743 52.3650862 -30.54931641 47.54077148 C-30.59930035 45.90403933 -30.66732082 44.26774686 -30.75439453 42.63256836 C-31.45909757 29.04838101 -31.45909757 29.04838101 -27.89208984 24.04077148 C-25.36969402 21.79410974 -22.79573503 19.88926898 -20 18 C-18.42007726 16.34826259 -16.86642016 14.66956763 -15.375 12.9375 C-12.51200566 9.69378833 -9.63209564 6.48635626 -6.625 3.375 C-5.99851562 2.72273437 -5.37203125 2.07046875 -4.7265625 1.3984375 C-3 0 -3 0 0 0 Z " fill="#E57E11" transform="translate(301,512)"/>
<path d="M0 0 C1.65322266 0.01740234 1.65322266 0.01740234 3.33984375 0.03515625 C4.44457031 0.04417969 5.54929687 0.05320312 6.6875 0.0625 C7.54214844 0.07410156 8.39679688 0.08570312 9.27734375 0.09765625 C9.27734375 0.42765625 9.27734375 0.75765625 9.27734375 1.09765625 C15.54734375 1.42765625 21.81734375 1.75765625 28.27734375 2.09765625 C27.53700477 6.53969014 26.70140211 10.20604279 25.27734375 14.41015625 C24.92671875 15.45816406 24.57609375 16.50617188 24.21484375 17.5859375 C23.27734375 20.09765625 23.27734375 20.09765625 22.27734375 21.09765625 C20.05879111 21.18549167 17.83745879 21.20460234 15.6171875 21.1953125 C14.6204879 21.19319008 14.6204879 21.19319008 13.60365295 21.19102478 C11.47400476 21.18541143 9.34446036 21.17285679 7.21484375 21.16015625 C5.77409006 21.15514296 4.33333472 21.15057976 2.89257812 21.14648438 C-0.64586727 21.1354377 -4.18425164 21.11816417 -7.72265625 21.09765625 C-7.57828125 20.32679688 -7.43390625 19.5559375 -7.28515625 18.76171875 C-7.00671875 17.25738281 -7.00671875 17.25738281 -6.72265625 15.72265625 C-6.44421875 14.22605469 -6.44421875 14.22605469 -6.16015625 12.69921875 C-5.66737642 10.2086208 -5.66737642 10.2086208 -5.72265625 8.09765625 C-6.24666016 9.48791016 -6.24666016 9.48791016 -6.78125 10.90625 C-7.23628906 12.10378906 -7.69132812 13.30132812 -8.16015625 14.53515625 C-8.61261719 15.73011719 -9.06507813 16.92507812 -9.53125 18.15625 C-10.72265625 21.09765625 -10.72265625 21.09765625 -11.72265625 22.09765625 C-13.72230607 22.18523628 -15.72501735 22.20462201 -17.7265625 22.1953125 C-18.94150391 22.19208984 -20.15644531 22.18886719 -21.40820312 22.18554688 C-22.68759766 22.17716797 -23.96699219 22.16878906 -25.28515625 22.16015625 C-26.56841797 22.15564453 -27.85167969 22.15113281 -29.17382812 22.14648438 C-32.35681647 22.1346517 -35.53971387 22.11816693 -38.72265625 22.09765625 C-38.2277815 17.22183764 -37.61277756 13.13277672 -35.66015625 8.59765625 C-35.29792969 7.74171875 -34.93570313 6.88578125 -34.5625 6.00390625 C-34.14677734 5.0603125 -34.14677734 5.0603125 -33.72265625 4.09765625 C-34.38265625 4.09765625 -35.04265625 4.09765625 -35.72265625 4.09765625 C-36.05265625 5.74765625 -36.38265625 7.39765625 -36.72265625 9.09765625 C-38.37265625 13.71765625 -40.02265625 18.33765625 -41.72265625 23.09765625 C-51.62265625 23.09765625 -61.52265625 23.09765625 -71.72265625 23.09765625 C-70.44575193 19.2669433 -69.42699858 16.28952996 -67.59765625 12.84765625 C-66.0892938 10.11901263 -66.0892938 10.11901263 -65.72265625 7.09765625 C-68.69265625 12.70765625 -71.66265625 18.31765625 -74.72265625 24.09765625 C-82.97265625 24.09765625 -91.22265625 24.09765625 -99.72265625 24.09765625 C-95.8269097 18.25403642 -91.96363642 12.65132076 -87.72265625 7.09765625 C-89.7047979 9.5536042 -91.68285378 12.01281118 -93.66015625 14.47265625 C-94.22412109 15.17132813 -94.78808594 15.87 -95.36914062 16.58984375 C-95.90732422 17.26015625 -96.44550781 17.93046875 -97 18.62109375 C-97.49749756 19.23903809 -97.99499512 19.85698242 -98.50756836 20.49365234 C-99.79770646 22.09474804 -99.79770646 22.09474804 -100.72265625 24.09765625 C-102.7890625 24.51171875 -102.7890625 24.51171875 -105.28515625 24.72265625 C-106.11144531 24.79742187 -106.93773438 24.8721875 -107.7890625 24.94921875 C-108.74619141 25.02269531 -108.74619141 25.02269531 -109.72265625 25.09765625 C-104.84118128 17.34831474 -99.83032703 9.69946237 -94.72265625 2.09765625 C-94.0565332 2.16839355 -93.39041016 2.23913086 -92.70410156 2.31201172 C-84.36799919 3.10973157 -76.10744461 3.25146817 -67.74267578 3.22802734 C-65.48983937 3.22269691 -63.23720517 3.22799026 -60.984375 3.234375 C-52.21341124 3.23700605 -43.53849343 2.90824694 -34.79394531 2.21435547 C-31.72265625 2.09765625 -31.72265625 2.09765625 -29.72265625 3.09765625 C-27.20905277 3.22392371 -24.73663129 3.28773645 -22.22265625 3.28515625 C-21.5052124 3.28507568 -20.78776855 3.28499512 -20.04858398 3.28491211 C-13.03931272 3.21011926 -6.33167357 0.2271045 0 0 Z " fill="#51B6BE" transform="translate(189.72265625,120.90234375)"/>
<path d="M0 0 C12.21 0 24.42 0 37 0 C30.380135 20.16990117 23.29676559 40.00711986 15.32421875 59.67578125 C13.82802049 63.43172438 12.40914614 67.21059526 11 71 C7.16668301 71.02929981 3.33339529 71.04689897 -0.5 71.0625 C-1.57765625 71.07087891 -2.6553125 71.07925781 -3.765625 71.08789062 C-9.61328382 71.10571885 -15.21863671 70.89105963 -21 70 C-20.59161513 68.22723842 -20.17267937 66.4569078 -19.75 64.6875 C-19.51796875 63.70136719 -19.2859375 62.71523437 -19.046875 61.69921875 C-17.63620113 56.71448682 -15.77039905 51.86859738 -14 47 C-3.44 47 7.12 47 18 47 C18 45.68 18 44.36 18 43 C8.1 43 -1.8 43 -12 43 C-9 29 -9 29 -7 24 C4.35093354 23.26429134 15.62526092 22.86052772 27 23 C27 21.35 27 19.7 27 18 C16.44 18 5.88 18 -5 18 C-3.48968687 11.95874748 -1.9692074 5.9076222 0 0 Z " fill="#0B84B3" transform="translate(221,123)"/>
<path d="M0 0 C12.87 0 25.74 0 39 0 C39 14.85 39 29.7 39 45 C26.13 45 13.26 45 0 45 C0 30.15 0 15.3 0 0 Z " fill="#E97F0E" transform="translate(505,199)"/>
<path d="M0 0 C2.875 1.3125 2.875 1.3125 5 3 C4.75 4.8125 4.75 4.8125 4 7 C2.99996948 7.61149902 2.99996948 7.61149902 1.97973633 8.23535156 C-0.29156564 9.88715687 -0.29156564 9.88715687 -0.4699707 12.87792969 C-0.45538818 14.04743164 -0.44080566 15.21693359 -0.42578125 16.421875 C-0.41804688 17.74147217 -0.4103125 19.06106934 -0.40234375 20.4206543 C-0.37296418 21.86378121 -0.34300068 23.30689634 -0.3125 24.75 C-0.29545068 26.24322986 -0.27984594 27.73647685 -0.265625 29.22973633 C-0.13800436 40.31472304 0.22805312 51.39433634 0.64111328 62.47192383 C1.13824521 76.31588997 1.09717329 90.14906906 1 104 C-0.58467728 103.71572583 -2.1677057 103.42225182 -3.75 103.125 C-4.63171875 102.96257812 -5.5134375 102.80015625 -6.421875 102.6328125 C-9 102 -9 102 -13 100 C-13 67.99 -13 35.98 -13 3 C-10.69 3 -8.38 3 -6 3 C-4.453125 2.1646875 -4.453125 2.1646875 -2.875 1.3125 C-1.451875 0.6628125 -1.451875 0.6628125 0 0 Z " fill="#047CB6" transform="translate(461,123)"/>
<path d="M0 0 C9.24 0 18.48 0 28 0 C26.84093544 5.21579054 25.68322585 10.38906143 24.375 15.5625 C24.11460937 16.59503906 23.85421875 17.62757813 23.5859375 18.69140625 C23.39257812 19.45324219 23.19921875 20.21507812 23 21 C23.66 21 24.32 21 25 21 C25.18175781 20.23816406 25.36351562 19.47632813 25.55078125 18.69140625 C25.92783203 17.14259766 25.92783203 17.14259766 26.3125 15.5625 C26.55613281 14.55316406 26.79976562 13.54382813 27.05078125 12.50390625 C28.19367967 8.285059 29.61779564 4.14661308 31 0 C40.9 0 50.8 0 61 0 C58.75 12.375 58.75 12.375 57.375 16.6875 C56.98441406 17.93080078 56.98441406 17.93080078 56.5859375 19.19921875 C56.39257812 19.79347656 56.19921875 20.38773438 56 21 C54.70582153 20.9685791 54.70582153 20.9685791 53.38549805 20.93652344 C50.1819249 20.86832098 46.97872184 20.81818686 43.7746582 20.78027344 C42.38846662 20.76016725 41.00235975 20.73287755 39.61645508 20.69824219 C37.62358094 20.64968775 35.63008611 20.62916028 33.63671875 20.609375 C32.43748779 20.58842773 31.23825684 20.56748047 30.00268555 20.54589844 C26.88860124 20.7017347 26.88860124 20.7017347 25.08520508 23.02441406 C24.7270874 23.67635742 24.36896973 24.32830078 24 25 C20.6283771 24.45051082 17.26484428 23.86958744 13.90625 23.24609375 C13.18566406 23.11396484 12.46507812 22.98183594 11.72265625 22.84570312 C10.2401866 22.57343937 8.75840682 22.29739233 7.27734375 22.01757812 C0.00826988 20.48026904 0.00826988 20.48026904 -7 22 C-6.40477506 19.45594213 -5.79917231 16.9151083 -5.1875 14.375 C-4.9390332 13.30572266 -4.9390332 13.30572266 -4.68554688 12.21484375 C-4.51474609 11.51230469 -4.34394531 10.80976563 -4.16796875 10.0859375 C-4.01610107 9.4470459 -3.8642334 8.8081543 -3.70776367 8.14990234 C-2.77449628 5.31501008 -1.33473609 2.66947219 0 0 Z " fill="#0473AD" transform="translate(141,171)"/>
<path d="M0 0 C1.65322266 0.01740234 1.65322266 0.01740234 3.33984375 0.03515625 C4.99693359 0.04869141 4.99693359 0.04869141 6.6875 0.0625 C7.54214844 0.07410156 8.39679688 0.08570312 9.27734375 0.09765625 C9.27734375 0.42765625 9.27734375 0.75765625 9.27734375 1.09765625 C15.54734375 1.42765625 21.81734375 1.75765625 28.27734375 2.09765625 C27.53700477 6.53969014 26.70140211 10.20604279 25.27734375 14.41015625 C24.92671875 15.45816406 24.57609375 16.50617188 24.21484375 17.5859375 C23.27734375 20.09765625 23.27734375 20.09765625 22.27734375 21.09765625 C20.05879111 21.18549167 17.83745879 21.20460234 15.6171875 21.1953125 C14.6204879 21.19319008 14.6204879 21.19319008 13.60365295 21.19102478 C11.47400476 21.18541143 9.34446036 21.17285679 7.21484375 21.16015625 C5.77409006 21.15514296 4.33333472 21.15057976 2.89257812 21.14648438 C-0.64586727 21.1354377 -4.18425164 21.11816417 -7.72265625 21.09765625 C-7.57828125 20.32679688 -7.43390625 19.5559375 -7.28515625 18.76171875 C-7.00671875 17.25738281 -7.00671875 17.25738281 -6.72265625 15.72265625 C-6.44421875 14.22605469 -6.44421875 14.22605469 -6.16015625 12.69921875 C-5.66737642 10.2086208 -5.66737642 10.2086208 -5.72265625 8.09765625 C-6.24666016 9.48791016 -6.24666016 9.48791016 -6.78125 10.90625 C-7.23628906 12.10378906 -7.69132812 13.30132812 -8.16015625 14.53515625 C-8.61261719 15.73011719 -9.06507813 16.92507812 -9.53125 18.15625 C-10.72265625 21.09765625 -10.72265625 21.09765625 -11.72265625 22.09765625 C-13.72230607 22.18523628 -15.72501735 22.20462201 -17.7265625 22.1953125 C-18.94150391 22.19208984 -20.15644531 22.18886719 -21.40820312 22.18554688 C-22.68759766 22.17716797 -23.96699219 22.16878906 -25.28515625 22.16015625 C-26.56841797 22.15564453 -27.85167969 22.15113281 -29.17382812 22.14648438 C-32.35681647 22.1346517 -35.53971387 22.11816693 -38.72265625 22.09765625 C-38.2277815 17.22183764 -37.61277756 13.13277672 -35.66015625 8.59765625 C-35.11681641 7.31375 -35.11681641 7.31375 -34.5625 6.00390625 C-34.28535156 5.37484375 -34.00820312 4.74578125 -33.72265625 4.09765625 C-34.71265625 4.42765625 -35.70265625 4.75765625 -36.72265625 5.09765625 C-39.41015625 4.66015625 -39.41015625 4.66015625 -41.72265625 4.09765625 C-41.72265625 3.76765625 -41.72265625 3.43765625 -41.72265625 3.09765625 C-40.09851247 2.90287886 -38.47329202 2.71706167 -36.84765625 2.53515625 C-35.94273437 2.43074219 -35.0378125 2.32632813 -34.10546875 2.21875 C-31.72265625 2.09765625 -31.72265625 2.09765625 -29.72265625 3.09765625 C-27.20905277 3.22392371 -24.73663129 3.28773645 -22.22265625 3.28515625 C-21.5052124 3.28507568 -20.78776855 3.28499512 -20.04858398 3.28491211 C-13.03931272 3.21011926 -6.33167357 0.2271045 0 0 Z " fill="#22A3BB" transform="translate(189.72265625,120.90234375)"/>
<path d="M0 0 C4.39864936 2.19932468 5.48648749 9.49629812 7 14 C8.12837925 17.62018252 9.19004856 21.25861112 10.2121582 24.91015625 C11.35086814 28.95033575 12.67855944 32.8554656 14.16674805 36.78416443 C16.60789864 43.27582435 18.89473538 49.82565626 21.20776367 56.36376953 C21.86265153 58.20946644 22.52120192 60.05386777 23.18334961 61.89697266 C24.14554778 64.57665052 25.09546077 67.26041063 26.04296875 69.9453125 C26.48820137 71.17364304 26.48820137 71.17364304 26.94242859 72.42678833 C28.46071311 76.7725497 29.35498961 80.32464142 29 85 C28.31292969 85.13277344 27.62585938 85.26554687 26.91796875 85.40234375 C25.56638672 85.66724609 25.56638672 85.66724609 24.1875 85.9375 C22.84751953 86.19853516 22.84751953 86.19853516 21.48046875 86.46484375 C18.88602829 86.97741153 18.88602829 86.97741153 16 88 C14.85771342 90.75763432 14.85771342 90.75763432 14 94 C13.33333333 96 12.66666667 98 12 100 C11.34 99.67 10.68 99.34 10 99 C10 95.37 10 91.74 10 88 C11.98 87.01 11.98 87.01 14 86 C13.77860352 85.36723145 13.55720703 84.73446289 13.32910156 84.08251953 C-7.78308986 23.34926959 -7.78308986 23.34926959 0 0 Z " fill="#0889BD" transform="translate(427,15)"/>
<path d="M0 0 C3.37471011 1.44630433 5.78192764 3.04257018 8 6 C8.26768522 11.88907484 4.6762637 15.78537132 1 20 C-4.33857983 25.71287141 -10.0585148 30.92848269 -16 36 C-17.0644338 36.92766106 -18.12817845 37.8561132 -19.19140625 38.78515625 C-31.14671305 49.1934824 -43.74586884 58.32687319 -57 67 C-57.66 66.67 -58.32 66.34 -59 66 C-53.90406242 59.09699235 -48.7159118 52.32107515 -43.2421875 45.7109375 C-41.75582318 43.91383499 -40.28165293 42.10657192 -38.8203125 40.2890625 C-33.94827708 34.23802919 -28.84755955 28.47562916 -23.56640625 22.78515625 C-21.43633815 20.47352984 -19.36048242 18.1338702 -17.3125 15.75 C-12.08762394 9.75014233 -6.85899638 4.11539783 0 0 Z " fill="#0990C0" transform="translate(439,119)"/>
<path d="M0 0 C9.16483473 -0.4815315 17.16227893 0.82305987 26 3.1875 C26.64798553 3.35696136 27.29597107 3.52642273 27.96359253 3.70101929 C42.82318162 7.60767387 57.23888749 12.79033928 71.62890625 18.14453125 C72.61607384 18.5098143 72.61607384 18.5098143 73.6231842 18.88247681 C77.54711807 20.36321737 81.28041513 22.06421374 85 24 C85 24.33 85 24.66 85 25 C57.9095809 26.27151902 23.71280955 23.04265118 -2 14 C-1.7834375 13.0409375 -1.7834375 13.0409375 -1.5625 12.0625 C-0.82752182 8.06095211 -0.42064535 4.04451011 0 0 Z " fill="#0679BB" transform="translate(465,109)"/>
<path d="M0 0 C6.04906312 4.32075937 6.04906312 4.32075937 7.625 7.875 C8.4882412 13.77506597 8.49179105 18.97472731 6 24.4375 C1.23667835 29.32617222 -1.92931121 31.15268313 -8.8125 31.5 C-14.26564707 31.3381486 -17.25936179 30.43396894 -21.10546875 26.578125 C-25.35897137 20.87188764 -25.35040859 14.78694705 -24.375 7.875 C-19.45914766 -1.6694146 -9.61647625 -3.20549208 0 0 Z " fill="#757677" transform="translate(546.375,660.125)"/>
<path d="M0 0 C19.475 0 19.475 0 25.9375 5.5 C29.49608992 9.81344233 29.34442255 13.89277058 29.2734375 19.2734375 C28.88073034 23.18928893 27.69945694 25.16210937 25 28 C19.36582689 31.94535847 15.3373143 32.53163488 8.5625 32.25 C4.3240625 32.12625 4.3240625 32.12625 0 32 C0 21.44 0 10.88 0 0 Z " fill="#7D7E80" transform="translate(15,659)"/>
<path d="M0 0 C19.824 0 19.824 0 24.55078125 4.46484375 C28.6761725 9.21775931 29.35170607 12.34887313 29.28125 18.4609375 C28.73016315 23.43602713 25.99302299 26.12519403 22.375 29.3125 C19.23223474 31.54551742 17.65839826 32.12435492 13.8671875 32.09765625 C13.14128418 32.09515869 12.41538086 32.09266113 11.66748047 32.09008789 C10.74596191 32.08098389 9.82444336 32.07187988 8.875 32.0625 C5.94625 32.041875 3.0175 32.02125 0 32 C0 21.44 0 10.88 0 0 Z " fill="#767677" transform="translate(563,659)"/>
<path d="M0 0 C12.21 0 24.42 0 37 0 C35.42102281 4.73693158 33.80525107 8.48727622 31.4375 12.8125 C30.81746094 13.95332031 30.19742188 15.09414062 29.55859375 16.26953125 C28 19 28 19 27 20 C24.26105915 20.08858646 21.5474673 20.11523479 18.80859375 20.09765625 C17.98875504 20.0962413 17.16891632 20.09482635 16.32423401 20.09336853 C13.69528618 20.08775289 11.06642227 20.07519779 8.4375 20.0625 C6.65950643 20.05748701 4.88151154 20.05292376 3.10351562 20.04882812 C-1.26435545 20.03777839 -5.63216348 20.02050331 -10 20 C-8 14 -8 14 0 0 Z " fill="#0775B0" transform="translate(64,172)"/>
<path d="M0 0 C10.89 0 21.78 0 33 0 C31.15070469 5.54788593 29.28829443 11.06231549 27.3125 16.5625 C26.87550781 17.78066406 26.43851563 18.99882812 25.98828125 20.25390625 C25.66214844 21.16011719 25.33601563 22.06632812 25 23 C21.16668301 23.02929981 17.33339529 23.04689897 13.5 23.0625 C12.42234375 23.07087891 11.3446875 23.07925781 10.234375 23.08789062 C4.38671618 23.10571885 -1.21863671 22.89105963 -7 22 C-6.59313217 20.20608274 -6.17382557 18.41498672 -5.75 16.625 C-5.51796875 15.62726563 -5.2859375 14.62953125 -5.046875 13.6015625 C-3.69707816 8.95785845 -1.79600856 4.49002139 0 0 Z " fill="#046DA9" transform="translate(207,171)"/>
<path d="M0 0 C10.59699418 8.1590354 18.83218377 18.80771268 22 32 C22.09375 34.81640625 22.09375 34.81640625 22 37 C19.62258589 34.62258589 19.08153226 32.71576454 17.9375 29.5625 C15.11068696 22.61637829 11.0827062 17.4565655 6 12 C5.48050781 11.42636719 4.96101563 10.85273437 4.42578125 10.26171875 C-6.23162835 -0.11596882 -21.58231314 -4.39056232 -35.98950195 -4.29907227 C-49.80117601 -3.92219909 -62.85621264 2.04668404 -72.87109375 11.58203125 C-80.24833619 19.96095431 -85.16624707 29.18021608 -88 40 C-86.35 40 -84.7 40 -83 40 C-83 40.33 -83 40.66 -83 41 C-85.64 41 -88.28 41 -91 41 C-90.25260897 26.05217945 -82.24274898 12.26376309 -71.51953125 2.0703125 C-50.94708199 -14.83418069 -21.46784114 -15.99135105 0 0 Z " fill="#FDF8EF" transform="translate(328,77)"/>
<path d="M0 0 C10.89 0 21.78 0 33 0 C31.5888115 7.05594252 29.89330805 14.05787047 28 21 C9.685 20.505 9.685 20.505 -9 20 C-7.80524223 17.01310558 -6.63406743 14.12810657 -5.2734375 11.23046875 C-4.99419434 10.63387451 -4.71495117 10.03728027 -4.42724609 9.42260742 C-4.08000488 8.68502197 -3.73276367 7.94743652 -3.375 7.1875 C-2.26125 4.815625 -1.1475 2.44375 0 0 Z " fill="#0372AE" transform="translate(104,172)"/>
<path d="M0 0 C6.27 0 12.54 0 19 0 C18.34 2.31 17.68 4.62 17 7 C17 8.65 17 10.3 17 12 C18.65 8.04 20.3 4.08 22 0 C27.61 0 33.22 0 39 0 C37.25502342 13.95981266 37.25502342 13.95981266 33.97192383 16.6809082 C29.95093321 18.4656295 26.54704256 18.37655618 22.19921875 18.29296875 C21.36284378 18.28872391 20.52646881 18.28447906 19.66474915 18.28010559 C17.00533235 18.26337364 14.346686 18.22573226 11.6875 18.1875 C9.87956827 18.17244604 8.07162461 18.15875888 6.26367188 18.14648438 C1.84215311 18.11348816 -2.57879302 18.06174428 -7 18 C-5.82381601 11.45534138 -2.84636233 5.99552916 0 0 Z " fill="#0682BC" transform="translate(149,204)"/>
<path d="M0 0 C12.21 0 24.42 0 37 0 C35.906875 3.609375 34.81375 7.21875 33.6875 10.9375 C33.34936279 12.07695068 33.01122559 13.21640137 32.6628418 14.39038086 C32.38609619 15.28120361 32.10935059 16.17202637 31.82421875 17.08984375 C31.40789185 18.46450806 31.40789185 18.46450806 30.9831543 19.86694336 C30.49649292 20.9228064 30.49649292 20.9228064 30 22 C29.01 22.33 28.02 22.66 27 23 C27 21.35 27 19.7 27 18 C16.44 18 5.88 18 -5 18 C-3.48968687 11.95874748 -1.9692074 5.9076222 0 0 Z " fill="#0592BA" transform="translate(221,123)"/>
<path d="M0 0 C3.01125 -0.0825 6.0225 -0.165 9.125 -0.25 C10.06230957 -0.28641602 10.99961914 -0.32283203 11.96533203 -0.36035156 C17.65017038 -0.43542291 20.61930698 0.33309403 25 4 C26.64156736 5.64156736 26.28815992 7.49215801 26.375 9.75 C26.36160175 14.42598883 26.36160175 14.42598883 24.8828125 16.7734375 C23.5 18.125 23.5 18.125 21 20 C22.56641751 24.30764815 24.68336156 28.06171464 27 32 C23.875 32.5 23.875 32.5 20 32 C17.5118883 29.63602403 15.64782223 27.00591748 14 24 C14 23.34 14 22.68 14 22 C11.36 22 8.72 22 6 22 C6 25.3 6 28.6 6 32 C4.02 32 2.04 32 0 32 C0 21.44 0 10.88 0 0 Z " fill="#767678" transform="translate(361,659)"/>
<path d="M0 0 C2.31 0 4.62 0 7 0 C8.85546875 1.94140625 8.85546875 1.94140625 10.1875 4.5625 C10.66832031 5.46871094 11.14914062 6.37492188 11.64453125 7.30859375 C12.09183594 8.19675781 12.53914063 9.08492187 13 10 C13.78326323 11.37980427 14.57362612 12.75563481 15.375 14.125 C15.91125 15.07375 16.4475 16.0225 17 17 C20.55506117 11.44805341 23.84985504 5.79090478 27 0 C29.31 0 31.62 0 34 0 C34 10.56 34 21.12 34 32 C32.02 32 30.04 32 28 32 C27.505 22.595 27.505 22.595 27 13 C24.36 17.95 21.72 22.9 19 28 C17.68 28 16.36 28 15 28 C12.36 23.05 9.72 18.1 7 13 C6.67 19.27 6.34 25.54 6 32 C4.02 32 2.04 32 0 32 C0 21.44 0 10.88 0 0 Z " fill="#757577" transform="translate(479,659)"/>
<path d="M0 0 C3.031875 -0.061875 6.06375 -0.12375 9.1875 -0.1875 C10.60712036 -0.22846802 10.60712036 -0.22846802 12.05541992 -0.27026367 C16.84936401 -0.3175874 20.15522761 -0.20273273 24 3 C26.48386059 6.72579089 26.3804212 8.58711402 26 13 C24.34860695 16.5386994 23.28394771 17.81070153 20 20 C21.37626099 24.01409454 23.34304697 26.72309126 26 30 C26 30.66 26 31.32 26 32 C23.4375 32.5625 23.4375 32.5625 20 32 C18.2890625 30.03125 18.2890625 30.03125 16.5625 27.5625 C14.32144027 24.21537609 14.32144027 24.21537609 11 22.1796875 C8.8812813 21.86753738 8.8812813 21.86753738 6 22 C6 25.3 6 28.6 6 32 C4.02 32 2.04 32 0 32 C0 21.44 0 10.88 0 0 Z " fill="#78787A" transform="translate(129,659)"/>
<path d="M0 0 C1.66332653 0.04014647 3.32674537 0.07664526 4.99023438 0.109375 C9.05827097 0.19736332 13.1218765 0.33528444 17.1875 0.5 C15.87850294 3.31414352 14.56471835 6.12602537 13.25 8.9375 C12.87681641 9.73994141 12.50363281 10.54238281 12.11914062 11.36914062 C11.76142578 12.13291016 11.40371094 12.89667969 11.03515625 13.68359375 C10.5402771 14.74404907 10.5402771 14.74404907 10.03540039 15.82592773 C9.1875 17.5 9.1875 17.5 8.1875 18.5 C5.5212397 18.58855161 2.88102886 18.61524673 0.21484375 18.59765625 C-0.58279892 18.5962413 -1.38044159 18.59482635 -2.20225525 18.59336853 C-4.75987435 18.58775316 -7.31740718 18.57519812 -9.875 18.5625 C-11.60481645 18.55748698 -13.33463426 18.55292373 -15.06445312 18.54882812 C-19.31383553 18.53777875 -23.56315312 18.52050386 -27.8125 18.5 C-26.63956325 16.06428453 -25.44235388 13.65115677 -24.18823242 11.25585938 C-22.78588294 8.60435116 -22.78588294 8.60435116 -21.9934082 6.07226562 C-18.43653161 -2.68130139 -7.89781496 -0.32943173 0 0 Z " fill="#0D8BB0" transform="translate(95.8125,148.5)"/>
<path d="M0 0 C9.9 0 19.8 0 30 0 C29.29345272 4.94583095 28.69409991 8.37816126 27 12.875 C26.649375 13.82117188 26.29875 14.76734375 25.9375 15.7421875 C25 18 25 18 24 19 C21.85441173 19.08775605 19.70595579 19.10695219 17.55859375 19.09765625 C16.25341797 19.09443359 14.94824219 19.09121094 13.60351562 19.08789062 C12.2148431 19.07953401 10.82617123 19.07106905 9.4375 19.0625 C8.04492344 19.05748666 6.65234519 19.05292347 5.25976562 19.04882812 C1.8398013 19.03699434 -1.58007844 19.0205088 -5 19 C-4.73725854 17.51937458 -4.46421764 16.04057715 -4.1875 14.5625 C-4.03667969 13.73878906 -3.88585937 12.91507813 -3.73046875 12.06640625 C-2.75488329 7.97103415 -1.33130912 3.99392735 0 0 Z " fill="#0B97B9" transform="translate(180,147)"/>
<path d="M0 0 C-0.4337188 1.50109768 -0.87222635 3.00081177 -1.3125 4.5 C-1.55613281 5.3353125 -1.79976562 6.170625 -2.05078125 7.03125 C-3.23425978 10.73266433 -4.63553008 14.36141355 -6 18 C-16.23 18 -26.46 18 -37 18 C-36.19980115 13.19880692 -35.45116558 10.35886096 -33.4375 6.125 C-32.75494141 4.67480469 -32.75494141 4.67480469 -32.05859375 3.1953125 C-31.70925781 2.47085938 -31.35992187 1.74640625 -31 1 C-20.6510926 0.34956362 -10.3734499 -0.16494885 0 0 Z " fill="#048DB7" transform="translate(146,148)"/>
<path d="M0 0 C1.56992005 0.12448953 3.13391335 0.32543613 4.69140625 0.55859375 C5.63564453 0.69716797 6.57988281 0.83574219 7.55273438 0.97851562 C8.54595703 1.12998047 9.53917969 1.28144531 10.5625 1.4375 C12.05813477 1.65889648 12.05813477 1.65889648 13.58398438 1.88476562 C16.05677439 2.25154309 18.52867321 2.62351004 21 3 C20.68408724 5.00282556 20.34616788 7.00218146 20 9 C19.81308594 10.16917969 19.62617188 11.33835938 19.43359375 12.54296875 C17.33164749 20.23361918 17.33164749 20.23361918 14 23 C6.39834826 25.68600146 -2.0057732 25.79815364 -10 26 C-9.39883072 20.26071202 -7.26863082 15.42676802 -5 10.1875 C-4.44699219 8.88135742 -4.44699219 8.88135742 -3.8828125 7.54882812 C-1.14951105 1.14951105 -1.14951105 1.14951105 0 0 Z " fill="#0683BF" transform="translate(124,200)"/>
<path d="M0 0 C9.57 0 19.14 0 29 0 C27.02 5.94 25.04 11.88 23 18 C13.76 18 4.52 18 -5 18 C-3.3615204 11.99224148 -1.71073807 5.98758324 0 0 Z " fill="#0594BA" transform="translate(148,148)"/>
<path d="M0 0 C5 0 5 0 7.2109375 2.125 C7.92507813 3.07375 8.63921875 4.0225 9.375 5 C12.69850581 9.31443384 16.10566256 13.42817164 19.78515625 17.44140625 C21 19 21 19 21 21 C21.66 21 22.32 21 23 21 C23 14.07 23 7.14 23 0 C24.65 0 26.3 0 28 0 C28 10.56 28 21.12 28 32 C26.02 32 24.04 32 22 32 C19.69140625 29.65625 19.69140625 29.65625 17.5625 26.5 C13.98693472 21.35826542 10.20063656 16.64751279 6 12 C5.67 18.6 5.34 25.2 5 32 C3.35 32 1.7 32 0 32 C0 21.44 0 10.88 0 0 Z " fill="#6A6B6D" transform="translate(292,659)"/>
<path d="M0 0 C1.640625 0.81640625 1.640625 0.81640625 3.890625 2.31640625 C3.578125 4.25390625 3.578125 4.25390625 2.890625 6.31640625 C1.900625 6.64640625 0.910625 6.97640625 -0.109375 7.31640625 C-0.686875 7.00703125 -1.264375 6.69765625 -1.859375 6.37890625 C-5.08783734 4.85435459 -7.57936781 5.0067565 -11.109375 5.31640625 C-14.83740965 7.06369403 -14.83740965 7.06369403 -17.109375 10.31640625 C-17.71674322 15.21873541 -17.80354386 19.07681899 -15.359375 23.44140625 C-10.42769516 26.28660616 -5.67209844 25.71564477 -0.109375 25.31640625 C-0.109375 23.00640625 -0.109375 20.69640625 -0.109375 18.31640625 C-2.749375 18.31640625 -5.389375 18.31640625 -8.109375 18.31640625 C-8.109375 16.66640625 -8.109375 15.01640625 -8.109375 13.31640625 C-3.489375 13.31640625 1.130625 13.31640625 5.890625 13.31640625 C5.890625 17.93640625 5.890625 22.55640625 5.890625 27.31640625 C-0.35251681 31.03827925 -4.6383001 33.06351374 -12.109375 32.31640625 C-16.58094574 30.26145646 -20.63782405 27.67796675 -23.109375 23.31640625 C-25.0429937 17.51555015 -25.10296519 11.41823165 -22.484375 5.87890625 C-16.22185875 -0.87801918 -8.99227018 -2.91416163 0 0 Z " fill="#757577" transform="translate(419.109375,659.68359375)"/>
<path d="M0 0 C7.59 0 15.18 0 23 0 C23 1.65 23 3.3 23 5 C17.06 5 11.12 5 5 5 C5 7.97 5 10.94 5 14 C10.28 14 15.56 14 21 14 C21 15.65 21 17.3 21 19 C16.05 19 11.1 19 6 19 C6 21.64 6 24.28 6 27 C11.61 27 17.22 27 23 27 C23 28.65 23 30.3 23 32 C15.41 32 7.82 32 0 32 C0 21.44 0 10.88 0 0 Z " fill="#7C7C7D" transform="translate(600,659)"/>
<path d="M0 0 C7.59 0 15.18 0 23 0 C23 1.65 23 3.3 23 5 C17.39 5 11.78 5 6 5 C6 7.97 6 10.94 6 14 C10.95 14 15.9 14 21 14 C21 15.32 21 16.64 21 18 C16.05 18 11.1 18 6 18 C6 20.97 6 23.94 6 27 C11.94 27 17.88 27 24 27 C24 28.65 24 30.3 24 32 C16.08 32 8.16 32 0 32 C0 21.44 0 10.88 0 0 Z " fill="#707072" transform="translate(330,659)"/>
<path d="M0 0 C1.04671875 -0.02578125 2.0934375 -0.0515625 3.171875 -0.078125 C6.59822956 0.28712092 8.45853214 1.28563373 11.25 3.25 C10.59 4.9 9.93 6.55 9.25 8.25 C8.404375 7.92 7.55875 7.59 6.6875 7.25 C3.04010784 6.18894046 0.02725336 6.09890987 -3.75 6.25 C-4.08 7.57 -4.41 8.89 -4.75 10.25 C-4.16992188 10.42015625 -3.58984375 10.5903125 -2.9921875 10.765625 C3.04348374 12.63807746 7.7183568 14.7183568 12.25 19.25 C12.70895865 23.3041347 12.68184338 25.53026104 10.5625 29.0625 C7.39347287 32.06022837 5.33797634 33.22202042 0.91796875 33.28125 C-4.80105206 32.93828024 -8.31183343 31.87060957 -12.75 28.25 C-12.09 26.93 -11.43 25.61 -10.75 24.25 C-7.75 24.25 -7.75 24.25 -4.75 26.25 C-2.46351152 26.49107326 -2.46351152 26.49107326 -0.0625 26.375 C0.74574219 26.35695313 1.55398437 26.33890625 2.38671875 26.3203125 C3.00160156 26.29710937 3.61648437 26.27390625 4.25 26.25 C4.58 24.6 4.91 22.95 5.25 21.25 C4.44175781 21.01925781 3.63351563 20.78851562 2.80078125 20.55078125 C-8.51930843 17.09603735 -8.51930843 17.09603735 -11.75 12.25 C-12.375 9.25 -12.375 9.25 -11.75 6.25 C-9.3125 3.4375 -9.3125 3.4375 -6.75 1.25 C-4.96430839 -0.53569161 -2.41346262 0.03531897 0 0 Z " fill="#79797B" transform="translate(78.75,658.75)"/>
<path d="M0 0 C7.59 0 15.18 0 23 0 C23 1.65 23 3.3 23 5 C17.06 5 11.12 5 5 5 C5 7.97 5 10.94 5 14 C10.28 14 15.56 14 21 14 C21 15.32 21 16.64 21 18 C15.72 18 10.44 18 5 18 C5 20.97 5 23.94 5 27 C10.94 27 16.88 27 23 27 C23 28.65 23 30.3 23 32 C15.41 32 7.82 32 0 32 C0 21.44 0 10.88 0 0 Z " fill="#717173" transform="translate(260,659)"/>
<path d="M0 0 C3.04739688 1.31592138 4.6866919 2.64491749 6.875 5.125 C8.50942687 9.30186866 8.36425243 12.73767461 7 17 C4.32146137 20.28120982 2.86424925 21.60356035 -1.22265625 22.47265625 C-5.58771796 22.75685893 -7.45879904 22.41717574 -11 19.6875 C-14.12811632 15.4840937 -14.52496159 12.1621223 -14 7 C-10.35973954 0.90120542 -6.94453392 -0.47081586 0 0 Z " fill="#FAFAFA" transform="translate(541,664)"/>
<path d="M0 0 C2.5721881 1.06483056 3.9233595 2.10135726 6 4 C5.34 5.32 4.68 6.64 4 8 C1 8 1 8 -1.3125 7 C-5.40857887 5.47587763 -8.63866874 5.60672652 -12.8125 6.8125 C-15.33201258 7.85789795 -15.33201258 7.85789795 -16 11 C-16.36994554 16.64166944 -16.11787827 20.0833458 -13 25 C-9.83397367 26.58301316 -6.45669994 26.30297768 -3 26 C-1.6520257 25.36345658 -0.31403276 24.70394612 1 24 C3.25 24.375 3.25 24.375 5 25 C5 26.32 5 27.64 5 29 C-0.35529037 31.94984079 -4.71642449 33.7458174 -10.859375 32.671875 C-15.75496881 31.13530176 -18.92181223 28.46077053 -21.9375 24.375 C-23.64089736 18.96420839 -24.3937511 13.17178747 -22.05078125 7.83984375 C-16.52773981 -0.36631561 -9.3804422 -1.11671931 0 0 Z " fill="#7A7B7D" transform="translate(201,659)"/>
<path d="M0 0 C11.46428571 0 11.46428571 0 15 3 C17.02425804 5.22233579 17.95601201 6.40329337 18.1796875 9.4375 C18.07914063 10.283125 17.97859375 11.12875 17.875 12 C17.78992188 12.845625 17.70484375 13.69125 17.6171875 14.5625 C16.9078648 17.36387572 15.96493636 18.89403949 14 21 C11 22 11 22 0 22 C0 14.74 0 7.48 0 0 Z " fill="#F8F8F8" transform="translate(568,664)"/>
<path d="M0 0 C9.44444444 0 9.44444444 0 15 3 C17.96054793 7.44082189 17.64828619 11.79027847 17 17 C14.81381363 20.16620095 13.63108389 20.7896387 10 22 C6.7 22 3.4 22 0 22 C0 14.74 0 7.48 0 0 Z " fill="#FBFBFB" transform="translate(21,664)"/>
<path d="M0 0 C5.61 0 11.22 0 17 0 C15.25793217 13.93654267 15.25793217 13.93654267 12.00390625 16.6875 C7.83324139 18.5097931 4.18123942 18.32582347 -0.3125 18.1875 C-1.56643555 18.16719727 -1.56643555 18.16719727 -2.84570312 18.14648438 C-4.89741498 18.11131217 -6.94879275 18.05751048 -9 18 C-8.34 17.67 -7.68 17.34 -7 17 C-7 15.35 -7 13.7 -7 12 C-6.34 12 -5.68 12 -5 12 C-3.35 8.04 -1.7 4.08 0 0 Z " fill="#0E8BC4" transform="translate(171,204)"/>
<path d="M0 0 C3.0625 -0.6875 3.0625 -0.6875 7 0 C9.96109769 3.48129053 14 8.25837425 14 13 C14.66 13 15.32 13 16 13 C16.226875 12.34 16.45375 11.68 16.6875 11 C18.40714786 7.06937633 20.11122751 3.21757586 23 0 C26.3125 -0.5 26.3125 -0.5 29 0 C27.73212083 3.55802741 26.05469675 6.57850434 24.02929688 9.75927734 C19.42235365 17.10442609 17.76545244 23.17514821 18 32 C16.02 32 14.04 32 12 32 C12.05542969 31.25878906 12.11085938 30.51757812 12.16796875 29.75390625 C12.23470716 18.84884934 7.26926281 12.12830104 0.99389648 3.58129883 C0 2 0 2 0 0 Z " fill="#717174" transform="translate(429,659)"/>
<path d="M0 0 C8.58 0 17.16 0 26 0 C26 1.65 26 3.3 26 5 C22.7 5 19.4 5 16 5 C16 13.91 16 22.82 16 32 C14.02 32 12.04 32 10 32 C10 23.09 10 14.18 10 5 C6.7 5 3.4 5 0 5 C0 3.35 0 1.7 0 0 Z " fill="#767778" transform="translate(212,659)"/>
<path d="M0 0 C8.58 0 17.16 0 26 0 C26 1.65 26 3.3 26 5 C22.7 5 19.4 5 16 5 C16 13.91 16 22.82 16 32 C14.02 32 12.04 32 10 32 C10 23.09 10 14.18 10 5 C6.7 5 3.4 5 0 5 C0 3.35 0 1.7 0 0 Z " fill="#7A7A7C" transform="translate(96,659)"/>
<path d="M0 0 C5.61 0 11.22 0 17 0 C17 5.61 17 11.22 17 17 C11.39 17 5.78 17 0 17 C0 11.39 0 5.78 0 0 Z " fill="#FCF7F4" transform="translate(379,544)"/>
<path d="M0 0 C5.61 0 11.22 0 17 0 C17 5.61 17 11.22 17 17 C11.39 17 5.78 17 0 17 C0 11.39 0 5.78 0 0 Z " fill="#FCF8F4" transform="translate(291,544)"/>
<path d="M0 0 C1.98 0 3.96 0 6 0 C6 8.91 6 17.82 6 27 C11.28 27 16.56 27 22 27 C22 28.65 22 30.3 22 32 C14.74 32 7.48 32 0 32 C0 21.44 0 10.88 0 0 Z " fill="#7E7E80" transform="translate(631,659)"/>
<path d="M0 0 C2.8125 2.4375 2.8125 2.4375 5 5 C5.33 5.33 5.66 5.66 6 6 C6.38530653 10.00718792 6.37615621 12.33449285 4.375 15.875 C1.46152755 18.48179114 -0.1038517 19 -4 19 C-7.63381505 17.39436079 -10.09567609 15.5079651 -12 12 C-12.58490372 8.07278932 -12.34594305 6.51891457 -10.125 3.1875 C-6.84028418 -0.19382511 -4.67056491 -0.54947822 0 0 Z " fill="#0B8DC0" transform="translate(455,104)"/>
<path d="M0 0 C5.61 0 11.22 0 17 0 C17 4.29 17 8.58 17 13 C11.39 13 5.78 13 0 13 C0 8.71 0 4.42 0 0 Z " fill="#EEF6FA" transform="translate(516,160)"/>
<path d="M0 0 C0.93779297 0.00080566 1.87558594 0.00161133 2.84179688 0.00244141 C16.54325605 0.11992197 30.06730473 1.91003437 43.5625 4.1875 C40.62842108 7.12157892 37.53931653 7.0373473 33.5625 7.1875 C28.75804017 7.04436382 23.97857512 6.69009753 19.1875 6.3125 C17.90488281 6.22097656 16.62226563 6.12945312 15.30078125 6.03515625 C5.8390528 5.3257764 5.8390528 5.3257764 3.5625 4.1875 C0.50736919 4.11716605 -2.5346815 4.19060438 -5.58984375 4.25 C-8.4375 4.1875 -8.4375 4.1875 -11.4375 3.1875 C-11.4375 2.5275 -11.4375 1.8675 -11.4375 1.1875 C-7.9152039 -0.57364805 -3.87981136 -0.00343225 0 0 Z " fill="#0F6A9A" transform="translate(186.4375,197.8125)"/>
<path d="M0 0 C3.96 0.33 7.92 0.66 12 1 C11.30390625 1.50273438 10.6078125 2.00546875 9.890625 2.5234375 C6.34277767 5.56307967 3.61833277 8.95522132 0.75 12.625 C0.20859375 13.305625 -0.3328125 13.98625 -0.890625 14.6875 C-3.70663205 18.17398957 -3.70663205 18.17398957 -6 22 C-8.06640625 22.4140625 -8.06640625 22.4140625 -10.5625 22.625 C-11.38878906 22.69976562 -12.21507813 22.77453125 -13.06640625 22.8515625 C-14.02353516 22.92503906 -14.02353516 22.92503906 -15 23 C-10.11852503 15.25065849 -5.10767078 7.60180612 0 0 Z " fill="#2DA8C3" transform="translate(95,123)"/>
<path d="M0 0 C1.65 0 3.3 0 5 0 C4.33501617 4.38889325 2.81242323 7.9811485 1 12 C3.31 12 5.62 12 8 12 C7.09476787 16.2002771 5.09717906 19.57966461 2.9375 23.25 C2.56044922 23.8996875 2.18339844 24.549375 1.79492188 25.21875 C0.86765885 26.81505091 -0.06558456 28.40787529 -1 30 C-2.45606519 25.47907032 -1.27032841 22.48351204 0 18 C-2.31 18 -4.62 18 -7 18 C-5.06375702 11.79522136 -2.74390859 5.89174281 0 0 Z " fill="#FDF5E9" transform="translate(523,206)"/>
<path d="M0 0 C1.65 0 3.3 0 5 0 C5 10.56 5 21.12 5 32 C3.35 32 1.7 32 0 32 C0 21.44 0 10.88 0 0 Z " fill="#69696A" transform="translate(164,659)"/>
<path d="M0 0 C1.65 0 3.3 0 5 0 C5 10.56 5 21.12 5 32 C3.35 32 1.7 32 0 32 C0 21.44 0 10.88 0 0 Z " fill="#6B6C6D" transform="translate(53,659)"/>
<path d="M0 0 C1.93681161 -0.08107583 3.8745934 -0.13922475 5.8125 -0.1875 C6.89144531 -0.22230469 7.97039062 -0.25710938 9.08203125 -0.29296875 C12 0 12 0 13.86328125 1.35546875 C15.48797756 3.70597441 15.4189057 5.20729532 15 8 C13.86328125 9.64453125 13.86328125 9.64453125 12 11 C9.08203125 11.29296875 9.08203125 11.29296875 5.8125 11.1875 C4.72582031 11.16042969 3.63914063 11.13335938 2.51953125 11.10546875 C1.27236328 11.05326172 1.27236328 11.05326172 0 11 C0 7.37 0 3.74 0 0 Z " fill="#F6F6F7" transform="translate(134,664)"/>
<path d="M0 0 C10.48540146 -0.37007299 10.48540146 -0.37007299 12.8359375 1.3203125 C14.61641972 3.8894647 14.32276119 5.9660448 14 9 C12 11 12 11 9.1796875 11.1953125 C8.08914063 11.17210937 6.99859375 11.14890625 5.875 11.125 C4.77929688 11.10695313 3.68359375 11.08890625 2.5546875 11.0703125 C1.71164062 11.04710937 0.86859375 11.02390625 0 11 C0 7.37 0 3.74 0 0 Z " fill="#F7F7F7" transform="translate(367,664)"/>
<path d="M0 0 C2.62506802 -0.02690844 5.24986173 -0.04679404 7.875 -0.0625 C8.62136719 -0.07087891 9.36773437 -0.07925781 10.13671875 -0.08789062 C15.7734375 -0.11328125 15.7734375 -0.11328125 18 1 C17.73413086 2.89355469 17.73413086 2.89355469 17 5 C15.35766602 6.00488281 15.35766602 6.00488281 13.25390625 6.703125 C12.12178711 7.08984375 12.12178711 7.08984375 10.96679688 7.484375 C10.17337891 7.73703125 9.37996094 7.9896875 8.5625 8.25 C7.77294922 8.518125 6.98339844 8.78625 6.16992188 9.0625 C0.37224968 11 0.37224968 11 -2 11 C-1.49800802 7.27091669 -0.95792977 3.63852314 0 0 Z " fill="#1386BB" transform="translate(192,205)"/>
<path d="M0 0 C17.82 0 35.64 0 54 0 C54 0.33 54 0.66 54 1 C48.06 1 42.12 1 36 1 C35.34 2.98 34.68 4.96 34 7 C32.68 10.63 31.36 14.26 30 18 C40.23 18 50.46 18 61 18 C61 18.33 61 18.66 61 19 C56.33691801 19.02468646 51.67387392 19.04285349 47.01074219 19.05493164 C45.42382139 19.05996588 43.83690523 19.06679369 42.25 19.07543945 C39.97134251 19.08754482 37.69274624 19.09323733 35.4140625 19.09765625 C34.34679428 19.10539818 34.34679428 19.10539818 33.25796509 19.11329651 C28.22774341 19.11387171 28.22774341 19.11387171 26 18 C27.70098649 12.12386484 30.13981664 7.72036671 33 2 C22.11 1.67 11.22 1.34 0 1 C0 0.67 0 0.34 0 0 Z " fill="#B1DAE7" transform="translate(79,148)"/>
<path d="M0 0 C3.63 0 7.26 0 11 0 C11 3.96 11 7.92 11 12 C7.37 12 3.74 12 0 12 C0 8.04 0 4.08 0 0 Z " fill="#FBF1E4" transform="translate(456,512)"/>
<path d="M0 0 C3.63 0 7.26 0 11 0 C11 3.96 11 7.92 11 12 C7.37 12 3.74 12 0 12 C0 8.04 0 4.08 0 0 Z " fill="#FAF0E4" transform="translate(436,512)"/>
<path d="M0 0 C3.96 0 7.92 0 12 0 C12 3.63 12 7.26 12 11 C8.04 11 4.08 11 0 11 C0 7.37 0 3.74 0 0 Z " fill="#FBF1E0" transform="translate(491,469)"/>
<path d="M0 0 C3.63 0 7.26 0 11 0 C11 3.63 11 7.26 11 11 C7.37 11 3.74 11 0 11 C0 7.37 0 3.74 0 0 Z " fill="#FCF8F1" transform="translate(456,491)"/>
<path d="M0 0 C3.63 0 7.26 0 11 0 C11 3.63 11 7.26 11 11 C7.37 11 3.74 11 0 11 C0 7.37 0 3.74 0 0 Z " fill="#FCF5EE" transform="translate(436,491)"/>
<path d="M0 0 C3.63 0 7.26 0 11 0 C11 3.63 11 7.26 11 11 C7.37 11 3.74 11 0 11 C0 7.37 0 3.74 0 0 Z " fill="#FCF7F0" transform="translate(456,469)"/>
<path d="M0 0 C3.63 0 7.26 0 11 0 C11 3.63 11 7.26 11 11 C7.37 11 3.74 11 0 11 C0 7.37 0 3.74 0 0 Z " fill="#FDF8F0" transform="translate(436,447)"/>
<path d="M0 0 C3.63 0 7.26 0 11 0 C11 3.63 11 7.26 11 11 C7.37 11 3.74 11 0 11 C0 7.37 0 3.74 0 0 Z " fill="#FDFAF3" transform="translate(456,447)"/>
<path d="M0 0 C3.3 0 6.6 0 10 0 C10 3.63 10 7.26 10 11 C6.7 11 3.4 11 0 11 C0 7.37 0 3.74 0 0 Z " fill="#FDFCFA" transform="translate(511,511)"/>
<path d="M0 0 C3.3 0 6.6 0 10 0 C10 3.63 10 7.26 10 11 C6.7 11 3.4 11 0 11 C0 7.37 0 3.74 0 0 Z " fill="#FDFCFA" transform="translate(492,511)"/>
<path d="M0 0 C3.3 0 6.6 0 10 0 C10 3.63 10 7.26 10 11 C6.7 11 3.4 11 0 11 C0 7.37 0 3.74 0 0 Z " fill="#FDFAF6" transform="translate(492,490)"/>
<path d="M0 0 C3.3 0 6.6 0 10 0 C10 3.63 10 7.26 10 11 C6.7 11 3.4 11 0 11 C0 7.37 0 3.74 0 0 Z " fill="#FDFBF9" transform="translate(437,469)"/>
<path d="M0 0 C3.3 0 6.6 0 10 0 C10 3.3 10 6.6 10 10 C6.7 10 3.4 10 0 10 C0 6.7 0 3.4 0 0 Z " fill="#FEFDFC" transform="translate(511,490)"/>
<path d="M0 0 C3.3 0 6.6 0 10 0 C10 3.3 10 6.6 10 10 C6.7 10 3.4 10 0 10 C0 6.7 0 3.4 0 0 Z " fill="#FDFDFD" transform="translate(511,469)"/>
<path d="M0 0 C-2.78030018 2.16241155 -5.60622643 4.00343545 -8.66796875 5.7421875 C-9.56193359 6.25136719 -10.45589844 6.76054688 -11.37695312 7.28515625 C-12.30443359 7.80980469 -13.23191406 8.33445312 -14.1875 8.875 C-15.09564453 9.39191406 -16.00378906 9.90882812 -16.93945312 10.44140625 C-18.74431338 11.46721802 -20.55141553 12.48909628 -22.36083984 13.50683594 C-24.11900991 14.5015601 -25.86945388 15.51006661 -27.61181641 16.53222656 C-28.4166748 16.99854492 -29.2215332 17.46486328 -30.05078125 17.9453125 C-30.76532471 18.36570801 -31.47986816 18.78610352 -32.21606445 19.21923828 C-33.09911255 19.60571533 -33.09911255 19.60571533 -34 20 C-34.66 19.67 -35.32 19.34 -36 19 C-32.54565686 16.99304709 -29.0858937 14.99563221 -25.625 13 C-24.64015625 12.42765625 -23.6553125 11.8553125 -22.640625 11.265625 C-21.69960938 10.72421875 -20.75859375 10.1828125 -19.7890625 9.625 C-18.91975098 9.12226562 -18.05043945 8.61953125 -17.15478516 8.1015625 C-15 7 -15 7 -13 7 C-12.67 5.35 -12.34 3.7 -12 2 C-15.96 2 -19.92 2 -24 2 C-24 1.67 -24 1.34 -24 1 C-15.98340366 -0.12513633 -8.07861415 -0.09579384 0 0 Z " fill="#D7541D" transform="translate(400,89)"/>
<path d="M0 0 C2.97 0 5.94 0 9 0 C9 3.3 9 6.6 9 10 C6.03 10 3.06 10 0 10 C0 6.7 0 3.4 0 0 Z " fill="#FEFDFB" transform="translate(340,508)"/>
<path d="M0 0 C2.97 0 5.94 0 9 0 C9 3.3 9 6.6 9 10 C6.03 10 3.06 10 0 10 C0 6.7 0 3.4 0 0 Z " fill="#FEFDFA" transform="translate(329,508)"/>
<path d="M0 0 C2.97 0 5.94 0 9 0 C9 3.3 9 6.6 9 10 C6.03 10 3.06 10 0 10 C0 6.7 0 3.4 0 0 Z " fill="#FDFBF7" transform="translate(340,496)"/>
<path d="M0 0 C2.97 0 5.94 0 9 0 C9 3.3 9 6.6 9 10 C6.03 10 3.06 10 0 10 C0 6.7 0 3.4 0 0 Z " fill="#FDFAF4" transform="translate(329,496)"/>
<path d="M0 0 C0.66 0 1.32 0 2 0 C2 3.3 2 6.6 2 10 C4.97 10 7.94 10 11 10 C11 10.66 11 11.32 11 12 C8.03 12 5.06 12 2 12 C2 15.3 2 18.6 2 22 C1.34 22 0.68 22 0 22 C0 18.7 0 15.4 0 12 C-2.97 12 -5.94 12 -9 12 C-9 11.34 -9 10.68 -9 10 C-6.03 10 -3.06 10 0 10 C0 6.7 0 3.4 0 0 Z " fill="#EDA03B" transform="translate(338,496)"/>
<path d="M0 0 C1.89510699 -0.08160748 3.79124504 -0.13946459 5.6875 -0.1875 C6.74324219 -0.22230469 7.79898438 -0.25710938 8.88671875 -0.29296875 C12.35422768 0.03333385 14.18432448 1.00969875 17 3 C16.34 4.65 15.68 6.3 15 8 C13.1838018 7.57811541 11.37205927 7.13700835 9.5625 6.6875 C8.55316406 6.44386719 7.54382813 6.20023438 6.50390625 5.94921875 C5.26447266 5.47935547 5.26447266 5.47935547 4 5 C3.67 4.01 3.34 3.02 3 2 C2.01 1.34 1.02 0.68 0 0 Z " fill="#807F81" transform="translate(73,659)"/>
<path d="M0 0 C1.32 1.65 2.64 3.3 4 5 C4.66 4.01 5.32 3.02 6 2 C6.36351563 2.92619141 6.36351563 2.92619141 6.734375 3.87109375 C8.78838421 9.06141703 10.94592053 14.15507621 13.36328125 19.1875 C13.57339844 19.785625 13.78351563 20.38375 14 21 C13.67 21.66 13.34 22.32 13 23 C0 5.74193548 0 5.74193548 0 0 Z " fill="#57AF53" transform="translate(80,370)"/>
<path d="M0 0 C4.2692104 4.05867994 5.76494976 9.17939712 6.25 15 C6 17 6 17 5 18 C4.84141158 20.14386657 4.74870702 22.29266838 4.68359375 24.44140625 C4.64169922 25.74658203 4.59980469 27.05175781 4.55664062 28.39648438 C4.51682392 29.7851533 4.47711175 31.17382522 4.4375 32.5625 C4.39432011 33.95509183 4.350706 35.34767028 4.30664062 36.74023438 C4.20014124 40.16004801 4.09813077 43.57993763 4 47 C3.67 47 3.34 47 3 47 C2.98018066 45.93152832 2.96036133 44.86305664 2.93994141 43.76220703 C2.86321582 39.75498977 2.77460834 35.74810439 2.68261719 31.74121094 C2.6446015 30.01504116 2.60970365 28.28879953 2.578125 26.5625 C2.41030131 17.50002078 2.23232461 8.83855353 0 0 Z " fill="#FDDC5D" transform="translate(631,243)"/>
<path d="M0 0 C0.66 0.33 1.32 0.66 2 1 C4.204364 1.22950319 6.41392173 1.41075933 8.625 1.5625 C9.81351563 1.64628906 11.00203125 1.73007813 12.2265625 1.81640625 C13.59941406 1.90728516 13.59941406 1.90728516 15 2 C15 2.33 15 2.66 15 3 C8.565 3.495 8.565 3.495 2 4 C1.67 7.96 1.34 11.92 1 16 C0.34 16 -0.32 16 -1 16 C-1.33 14.68 -1.66 13.36 -2 12 C-2.99 12.495 -2.99 12.495 -4 13 C-3.84402344 12.30132812 -3.68804687 11.60265625 -3.52734375 10.8828125 C-3.33269531 9.97273437 -3.13804687 9.06265625 -2.9375 8.125 C-2.74027344 7.22007812 -2.54304687 6.31515625 -2.33984375 5.3828125 C-1.76797843 2.98985875 -1.76797843 2.98985875 -3 1 C-2.01 0.67 -1.02 0.34 0 0 Z " fill="#DDEFF6" transform="translate(190,201)"/>
<path d="M0 0 C0.94101563 0.00322266 1.88203125 0.00644531 2.8515625 0.00976562 C3.83640625 0.01814453 4.82125 0.02652344 5.8359375 0.03515625 C6.82851562 0.03966797 7.82109375 0.04417969 8.84375 0.04882812 C11.2995391 0.0606348 13.75520854 0.07710225 16.2109375 0.09765625 C16.2109375 0.42765625 16.2109375 0.75765625 16.2109375 1.09765625 C14.2309375 1.09765625 12.2509375 1.09765625 10.2109375 1.09765625 C9.8809375 2.08765625 9.5509375 3.07765625 9.2109375 4.09765625 C7.10684111 4.12467033 5.00264572 4.14405848 2.8984375 4.16015625 C1.72667969 4.17175781 0.55492187 4.18335938 -0.65234375 4.1953125 C-3.7890625 4.09765625 -3.7890625 4.09765625 -6.7890625 3.09765625 C-6.7890625 2.43765625 -6.7890625 1.77765625 -6.7890625 1.09765625 C-4.33631109 -0.12871945 -2.7384844 -0.01649689 0 0 Z " fill="#4194B6" transform="translate(181.7890625,197.90234375)"/>
<path d="M0 0 C0 0.33 0 0.66 0 1 C-1.27846802 1.21934204 -1.27846802 1.21934204 -2.58276367 1.44311523 C-5.76042933 1.98863073 -8.93798872 2.53475999 -12.11547852 3.08129883 C-13.48783238 3.31722015 -14.86022771 3.55290047 -16.23266602 3.78833008 C-18.21121056 4.1277757 -20.18959146 4.46817471 -22.16796875 4.80859375 C-23.95110474 5.11494751 -23.95110474 5.11494751 -25.77026367 5.42749023 C-28.9399532 5.93622523 -28.9399532 5.93622523 -31.73950195 6.76196289 C-34 7 -34 7 -35.8125 5.5625 C-36.204375 5.046875 -36.59625 4.53125 -37 4 C-32.8980609 3.31913515 -28.79316795 2.65797386 -24.6875 2 C-22.96563477 1.71382812 -22.96563477 1.71382812 -21.20898438 1.421875 C-14.07069548 0.28945523 -7.22592414 -0.26392722 0 0 Z " fill="#BBE2EA" transform="translate(371,155)"/>
<path d="M0 0 C6.33333333 6.33333333 12.66666667 12.66666667 19 19 C15.09161134 19 13.88405893 17.49432124 11 15 C10.67 15.66 10.34 16.32 10 17 C8.53264807 14.79897211 7.06571073 12.59769269 5.6015625 10.39453125 C4.64786023 8.96863005 3.68692294 7.54746134 2.7109375 6.13671875 C0 2.20683453 0 2.20683453 0 0 Z " fill="#4EA253" transform="translate(79,393)"/>
<path d="M0 0 C0.33 0 0.66 0 1 0 C1.84843174 6.56699525 2.12561146 12.94550593 2.0625 19.5625 C2.05798828 20.47580078 2.05347656 21.38910156 2.04882812 22.33007812 C2.0371874 24.55345738 2.02083851 26.77669121 2 29 C1.01 29 0.02 29 -1 29 C-0.814375 27.845 -0.62875 26.69 -0.4375 25.5 C0.18629184 20.14222624 -0.21934791 14.93898475 -0.68139648 9.5859375 C-0.95618635 6.18102244 -1.13840675 3.25617813 0 0 Z " fill="#D44B16" transform="translate(542,215)"/>
<path d="M0 0 C1.65 0.33 3.3 0.66 5 1 C3.35 5.29 1.7 9.58 0 14 C-0.66 13.67 -1.32 13.34 -2 13 C-2.05391993 11.20866022 -2.09275571 9.41686101 -2.125 7.625 C-2.14820313 6.62726563 -2.17140625 5.62953125 -2.1953125 4.6015625 C-2 2 -2 2 0 0 Z " fill="#1177B1" transform="translate(439,101)"/>
<path d="M0 0 C1.48668933 3.88243712 0.45832838 6.52209984 -0.8125 10.375 C-1.16957031 11.47585938 -1.52664063 12.57671875 -1.89453125 13.7109375 C-2.25933594 14.79632813 -2.62414062 15.88171875 -3 17 C-3.37511719 18.12664062 -3.75023437 19.25328125 -4.13671875 20.4140625 C-4.56404297 21.69410156 -4.56404297 21.69410156 -5 23 C-5.99 22.67 -6.98 22.34 -8 22 C-7.38381689 18.17135661 -6.23217407 15.05543833 -4.5625 11.5625 C-2.78446265 7.75976117 -1.1990099 4.03303332 0 0 Z " fill="#FCF0BF" transform="translate(637,339)"/>
<path d="M0 0 C1.41799815 0.00094446 2.83622994 0.03453973 4.25292969 0.09521484 C5.37643829 0.10794937 5.37643829 0.10794937 6.52264404 0.12094116 C8.90817938 0.15445304 11.29029681 0.22971348 13.67480469 0.30615234 C15.29454742 0.33625548 16.91434331 0.3636307 18.53417969 0.38818359 C22.49903244 0.45423512 26.46133978 0.55772921 30.42480469 0.68115234 C30.42480469 1.01115234 30.42480469 1.34115234 30.42480469 1.68115234 C29.47637695 1.68526123 28.52794922 1.68937012 27.55078125 1.69360352 C24.02397653 1.7206098 20.49890829 1.76971611 16.97265625 1.83374023 C15.44802536 1.85690452 13.9232348 1.87131234 12.3984375 1.87670898 C10.20309147 1.8860113 8.01025057 1.92701931 5.81542969 1.97412109 C4.49575195 1.98983154 3.17607422 2.00554199 1.81640625 2.02172852 C-1.7539611 2.37994178 -1.7539611 2.37994178 -4.03710938 5.2253418 C-4.54467773 6.03575928 -5.05224609 6.84617676 -5.57519531 7.68115234 C-6.23519531 7.35115234 -6.89519531 7.02115234 -7.57519531 6.68115234 C-4.61762128 0.87975713 -4.61762128 0.87975713 0 0 Z " fill="#32A4AA" transform="translate(490.5751953125,270.31884765625)"/>
<path d="M0 0 C0.66 0.33 1.32 0.66 2 1 C0.68 4.3 -0.64 7.6 -2 11 C3.94 10.505 3.94 10.505 10 10 C6.28642959 12.47571361 3.14459883 13.28981065 -1.3125 12.6875 C-3 12 -3 12 -4 10 C-4.99 9.67 -5.98 9.34 -7 9 C-4.69 6.03 -2.38 3.06 0 0 Z " fill="#78CA4F" transform="translate(105,224)"/>
<path d="M0 0 C0.66 0.33 1.32 0.66 2 1 C2.6875 3.5 2.6875 3.5 3 6 C2.67 6.33 2.34 6.66 2 7 C2.00901797 9.55659503 2.13289751 12.09893445 2.2578125 14.65234375 C2.17273438 15.42707031 2.08765625 16.20179687 2 17 C1.01 17.66 0.02 18.32 -1 19 C-1.02697137 16.39576408 -1.04682489 13.79180756 -1.0625 11.1875 C-1.07087891 10.44951172 -1.07925781 9.71152344 -1.08789062 8.95117188 C-1.10259828 5.70077932 -1.03531702 3.10595105 0 0 Z " fill="#39ABC7" transform="translate(427,15)"/>
<path d="M0 0 C5.61 0 11.22 0 17 0 C17 1.32 17 2.64 17 4 C13.7 3.67 10.4 3.34 7 3 C7 2.67 7 2.34 7 2 C4.69 1.67 2.38 1.34 0 1 C0 0.67 0 0.34 0 0 Z " fill="#656567" transform="translate(266,687)"/>
<path d="M0 0 C0.33 0 0.66 0 1 0 C1.33 5.28 1.66 10.56 2 16 C2.33 14.02 2.66 12.04 3 10 C3.33 10 3.66 10 4 10 C4 13.63 4 17.26 4 21 C2.68 21 1.36 21 0 21 C0 14.07 0 7.14 0 0 Z " fill="#646465" transform="translate(508,670)"/>
<path d="M0 0 C3.3 0.33 6.6 0.66 10 1 C7.06050602 3.93949398 3.98680142 3.87343488 0 4 C-5.01212857 3.78714924 -10.00171466 3.42303196 -15 3 C-15 2.67 -15 2.34 -15 2 C-10.05 2 -5.1 2 0 2 C0 1.34 0 0.68 0 0 Z " fill="#2683B4" transform="translate(220,201)"/>
<path d="M0 0 C0.99 0.33 1.98 0.66 3 1 C2.01 5.29 1.02 9.58 0 14 C-0.99 14 -1.98 14 -3 14 C-4 12 -4 12 -3.22265625 9.1796875 C-2.83980469 8.08914062 -2.45695313 6.99859375 -2.0625 5.875 C-1.68222656 4.77929688 -1.30195313 3.68359375 -0.91015625 2.5546875 C-0.60980469 1.71164063 -0.30945313 0.86859375 0 0 Z " fill="#D5EBF1" transform="translate(176,149)"/>
<path d="M0 0 C1 3 1 3 -0.43359375 6.35546875 C-1.09148807 7.6380304 -1.75989743 8.91524057 -2.4375 10.1875 C-2.77587891 10.84169922 -3.11425781 11.49589844 -3.46289062 12.16992188 C-4.29969098 13.78459299 -5.14869746 15.39292763 -6 17 C-5.34 17.33 -4.68 17.66 -4 18 C-4.99 18 -5.98 18 -7 18 C-8.17482324 14.52545194 -8.06339535 14.1324858 -6.34765625 10.546875 C-5.59841315 9.27382478 -4.83617987 8.00834874 -4.0625 6.75 C-3.67642578 6.1003125 -3.29035156 5.450625 -2.89257812 4.78125 C-1.93941582 3.18087871 -0.97114076 1.5895258 0 0 Z " fill="#E3F1F4" transform="translate(124,127)"/>
<path d="M0 0 C0.99 0.33 1.98 0.66 3 1 C1.68938409 5.23429756 0.05643741 9.07407404 -2 13 C-2.99 12.67 -3.98 12.34 -5 12 C-3.68938409 7.76570244 -2.05643741 3.92592596 0 0 Z " fill="#DCE9F2" transform="translate(100,174)"/>
<path d="M0 0 C0 0.66 0 1.32 0 2 C-0.99 2.66 -1.98 3.32 -3 4 C-4.00805555 6.17897492 -4.00805555 6.17897492 -4.6875 8.625 C-4.93886719 9.44226563 -5.19023437 10.25953125 -5.44921875 11.1015625 C-5.63097656 11.72804687 -5.81273437 12.35453125 -6 13 C-5.34 13 -4.68 13 -4 13 C-4 13.66 -4 14.32 -4 15 C-5.65 15.66 -7.3 16.32 -9 17 C-8.40438528 11.34166012 -6.5330007 6.07555989 -4 1 C-2 0 -2 0 0 0 Z " fill="#30ADB8" transform="translate(254,170)"/>
<path d="M0 0 C0.33 0.66 0.66 1.32 1 2 C1.66 2.33 2.32 2.66 3 3 C1.68 6.96 0.36 10.92 -1 15 C-1.66 15 -2.32 15 -3 15 C-2.44854729 9.76119922 -1.57077907 5.02649303 0 0 Z " fill="#C8E0ED" transform="translate(167,177)"/>
<path d="M0 0 C0.99 0 1.98 0 3 0 C2.01 4.29 1.02 8.58 0 13 C-0.66 12.34 -1.32 11.68 -2 11 C-2.99 11.495 -2.99 11.495 -4 12 C-3.52309796 10.37433394 -3.04340334 8.74948689 -2.5625 7.125 C-2.29566406 6.22007812 -2.02882812 5.31515625 -1.75390625 4.3828125 C-1 2 -1 2 0 0 Z " fill="#DEEFF4" transform="translate(217,127)"/>
<path d="M0 0 C4.19469571 0.59924224 8.00999834 1.57499941 12 3 C12 3.33 12 3.66 12 4 C6.06 4 0.12 4 -6 4 C-6 3.67 -6 3.34 -6 3 C-3.36 2.67 -0.72 2.34 2 2 C1.34 1.34 0.68 0.68 0 0 Z " fill="#DC521B" transform="translate(384,123)"/>
<path d="M0 0 C-5.445 4.455 -5.445 4.455 -11 9 C-11 4.67008153 -8.88494631 3.08622163 -6 0 C-3 -1 -3 -1 0 0 Z " fill="#1D6DA5" transform="translate(564,387)"/>
<path d="M0 0 C0.33 0 0.66 0 1 0 C1 7.92 1 15.84 1 24 C0.67 24 0.34 24 0 24 C-0.33 18.06 -0.66 12.12 -1 6 C-1.99 6.495 -1.99 6.495 -3 7 C-1.125 2.25 -1.125 2.25 0 0 Z " fill="#D9E9EE" transform="translate(488,323)"/>
<path d="M0 0 C0.33 0.66 0.66 1.32 1 2 C1.66 2 2.32 2 3 2 C2.54554036 3.41791408 2.08625056 4.83428046 1.625 6.25 C1.36976563 7.03890625 1.11453125 7.8278125 0.8515625 8.640625 C0.04826333 10.86627958 -0.89711662 12.90931672 -2 15 C-2.21755666 9.5610835 -2.10428384 5.12919186 0 0 Z " fill="#DDEDF4" transform="translate(167,205)"/>
<path d="M0 0 C1.18075019 3.54225058 0.74777355 4.99706633 -0.1875 8.5625 C-0.54908203 10.01849609 -0.54908203 10.01849609 -0.91796875 11.50390625 C-2 14 -2 14 -4.11328125 15.33984375 C-4.73589844 15.55769531 -5.35851562 15.77554688 -6 16 C-4.43551329 10.3856009 -2.83604813 5.13189662 0 0 Z " fill="#D4EBEF" transform="translate(185,125)"/>
<path d="M0 0 C3.24290174 4.8643526 5.55811184 10.04680699 5 16 C2.77976074 13.77976074 2.00011037 12.01470899 0.8125 9.125 C0.44769531 8.26132813 0.08289063 7.39765625 -0.29296875 6.5078125 C-1.04664008 3.83456944 -0.9388856 2.57147011 0 0 Z " fill="#FAE5D1" transform="translate(345,98)"/>
<path d="M0 0 C0.66 0.66 1.32 1.32 2 2 C1.9765625 4.3828125 1.9765625 4.3828125 1.625 7.125 C1.51414063 8.03507813 1.40328125 8.94515625 1.2890625 9.8828125 C1.19367188 10.58148438 1.09828125 11.28015625 1 12 C-0.32 11.67 -1.64 11.34 -3 11 C-2.01 7.37 -1.02 3.74 0 0 Z " fill="#ADCFE4" transform="translate(134,182)"/>
<path d="M0 0 C0 0.33 0 0.66 0 1 C-1.93314127 1.41659944 -3.87180347 1.80764837 -5.8125 2.1875 C-6.89144531 2.40792969 -7.97039062 2.62835938 -9.08203125 2.85546875 C-12 3 -12 3 -13.88671875 1.55078125 C-14.25410156 1.03902344 -14.62148438 0.52726563 -15 0 C-9.77254141 -1.2063366 -5.23471686 -0.75612577 0 0 Z " fill="#D5EDF3" transform="translate(349,159)"/>
<path d="M0 0 C0.99 0.33 1.98 0.66 3 1 C1.515 6.445 1.515 6.445 0 12 C-2 9 -2 9 -1.7578125 6.73828125 C-1.44457031 5.53751953 -1.44457031 5.53751953 -1.125 4.3125 C-0.92132813 3.50425781 -0.71765625 2.69601563 -0.5078125 1.86328125 C-0.34023437 1.24839844 -0.17265625 0.63351563 0 0 Z " fill="#B8DDE9" transform="translate(144,152)"/>
<path d="M0 0 C0.33 0.99 0.66 1.98 1 3 C-0.24196122 4.15454162 -1.49392845 5.29832562 -2.75 6.4375 C-3.79414062 7.39462891 -3.79414062 7.39462891 -4.859375 8.37109375 C-6.98792725 9.99081325 -8.39023405 10.58267256 -11 11 C-7.33333333 7.33333333 -3.66666667 3.66666667 0 0 Z " fill="#EFA81E" transform="translate(595,418)"/>
<path d="M0 0 C0.66 0 1.32 0 2 0 C1.34 2.97 0.68 5.94 0 9 C-0.99 9 -1.98 9 -3 9 C-3.33 8.34 -3.66 7.68 -4 7 C-1.55555556 1.55555556 -1.55555556 1.55555556 0 0 Z " fill="#E4F1F6" transform="translate(211,150)"/>
<path d="M0 0 C4.455 1.98 4.455 1.98 9 4 C8.01 5.32 7.02 6.64 6 8 C4.99403703 7.0479279 3.99538437 6.08812654 3 5.125 C2.443125 4.59132813 1.88625 4.05765625 1.3125 3.5078125 C0 2 0 2 0 0 Z " fill="#FDB61A" transform="translate(203,55)"/>
<path d="M0 0 C3.81430239 0.51544627 5.42061082 1.20566172 8 4 C9.64605826 5.03357147 11.30963442 6.04060332 13 7 C12.67 7.66 12.34 8.32 12 9 C10.18381144 7.88096454 8.37214474 6.75458716 6.5625 5.625 C5.55316406 4.99851563 4.54382813 4.37203125 3.50390625 3.7265625 C1 2 1 2 0 0 Z " fill="#1A74AF" transform="translate(516,251)"/>
<path d="M0 0 C3.96 0 7.92 0 12 0 C8 3 8 3 5.4375 3.375 C3 3 3 3 0 0 Z " fill="#88878A" transform="translate(73,659)"/>
<path d="M0 0 C1.50433594 0.01353516 1.50433594 0.01353516 3.0390625 0.02734375 C3.80992187 0.03894531 4.58078125 0.05054687 5.375 0.0625 C5.375 0.3925 5.375 0.7225 5.375 1.0625 C1.415 1.7225 -2.545 2.3825 -6.625 3.0625 C-6.955 2.4025 -7.285 1.7425 -7.625 1.0625 C-4.98041621 -0.25979189 -2.94738699 -0.03427194 0 0 Z " fill="#58BBC8" transform="translate(131.625,124.9375)"/>
<path d="M0 0 C2.97 0 5.94 0 9 0 C6.3144406 2.6855594 3.62378672 3.06049974 0 4 C0 2.68 0 1.36 0 0 Z " fill="#0890BB" transform="translate(187,122)"/>
<path d="M0 0 C2.31 0 4.62 0 7 0 C7 0.99 7 1.98 7 3 C4.69 3 2.38 3 0 3 C0 2.01 0 1.02 0 0 Z " fill="#6C6C6D" transform="translate(412,674)"/>
<path d="M0 0 C0.99 0 1.98 0 3 0 C2.67 1.98 2.34 3.96 2 6 C0.68 6.33 -0.64 6.66 -2 7 C-1.34 4.69 -0.68 2.38 0 0 Z " fill="#DDEEF5" transform="translate(141,213)"/>
<path d="M0 0 C0.66 0 1.32 0 2 0 C2 0.66 2 1.32 2 2 C2.66 2 3.32 2 4 2 C4 2.66 4 3.32 4 4 C2.35 4.66 0.7 5.32 -1 6 C-0.67 4.02 -0.34 2.04 0 0 Z " fill="#38B1C3" transform="translate(246,181)"/>
<path d="M0 0 C3.3 0 6.6 0 10 0 C9.67 0.66 9.34 1.32 9 2 C5.9375 2.625 5.9375 2.625 3 3 C3 2.34 3 1.68 3 1 C2.01 0.67 1.02 0.34 0 0 Z " fill="#ECF7FA" transform="translate(328,160)"/>
<path d="M0 0 C0.33 0 0.66 0 1 0 C1 1.98 1 3.96 1 6 C-0.98 6.99 -0.98 6.99 -3 8 C-1.125 1.125 -1.125 1.125 0 0 Z " fill="#EE911C" transform="translate(312,12)"/>
<path d="M0 0 C0.66 0.33 1.32 0.66 2 1 C1.74438677 3.3431213 1.40729228 5.67843403 1 8 C0.01 8.495 0.01 8.495 -1 9 C-0.67 6.03 -0.34 3.06 0 0 Z " fill="#D7E6F1" transform="translate(136,175)"/>
</svg>
